<?xml version="1.0" encoding="UTF-8" standalone="no"?>
<!-- Created with Inkscape (http://www.inkscape.org/) -->

<svg
   version="1.1"
   id="svg2"
   width="666.66669"
   height="666.66669"
   viewBox="0 0 666.66669 666.66669"
   sodipodi:docname="21665347_6424911.eps"
   xmlns:inkscape="http://www.inkscape.org/namespaces/inkscape"
   xmlns:sodipodi="http://sodipodi.sourceforge.net/DTD/sodipodi-0.dtd"
   xmlns="http://www.w3.org/2000/svg"
   xmlns:svg="http://www.w3.org/2000/svg">
  <defs
     id="defs6" />
  <sodipodi:namedview
     id="namedview4"
     pagecolor="#ffffff"
     bordercolor="#000000"
     borderopacity="0.25"
     inkscape:showpageshadow="2"
     inkscape:pageopacity="0.0"
     inkscape:pagecheckerboard="0"
     inkscape:deskcolor="#d1d1d1" />
  <g
     id="g8"
     inkscape:groupmode="layer"
     inkscape:label="ink_ext_XXXXXX"
     transform="matrix(1.3333333,0,0,-1.3333333,0,666.66667)">
    <g
       id="g10"
       transform="scale(0.1)">
      <path
         d="M 0,0 H 5000 V 5000 H 0 Z"
         style="fill:#f7fcef;fill-opacity:1;fill-rule:nonzero;stroke:none"
         id="path12" />
      <path
         d="m 2753.79,2265.57 c 41.84,3.03 93.23,-0.52 122.56,35.34 31.73,38.8 9.81,108.25 -33.6,131.1 -26.47,13.93 -57.7,16.98 -87.95,19.75 -134.05,12.27 -268.88,24.53 -403.61,17.53 -74.47,-3.88 -163.48,4.65 -231.1,-32.89 -29.77,-16.53 -65.44,-55.52 -59.67,-93.39 8.07,-53.09 94.13,-66.71 136.25,-72.72 120.99,-17.26 490.64,-10.3 553.29,-5.02 1.27,0.11 2.54,0.21 3.83,0.3"
         style="fill:#9ed760;fill-opacity:1;fill-rule:nonzero;stroke:none"
         id="path14" />
      <g
         id="g16"
         transform="scale(10)">
        <text
           xml:space="preserve"
           transform="matrix(1,0,0,-1,212.137,230.543)"
           style="font-variant:normal;font-weight:normal;font-size:14.3091px;font-family:Mali;-inkscape-font-specification:Mali-Regular;writing-mode:lr-tb;fill:#1b3c37;fill-opacity:1;fill-rule:nonzero;stroke:none"
           id="text20"><tspan
             x="0 10.216698 16.484083 25.656216 35.872913 45.416401 52.942986 62.844883"
             y="0"
             sodipodi:role="line"
             id="tspan18">CIRCULAR</tspan></text>
        <text
           xml:space="preserve"
           transform="matrix(1,0,0,-1,201.0128,209.1082)"
           style="font-variant:normal;font-weight:bold;font-size:19.0022px;font-family:Mali;-inkscape-font-specification:Mali-Bold;writing-mode:lr-tb;fill:#1b3c37;fill-opacity:1;fill-rule:nonzero;stroke:none"
           id="text24"><tspan
             x="0 12.161408 26.260504 41.690289 56.112961 71.542747 86.914841"
             y="0"
             sodipodi:role="line"
             id="tspan22">ECONOMY</tspan></text>
      </g>
      <path
         d="m 2611.37,1465.07 c -154.89,-26.85 -291.25,-7.8 -439.93,47.3 h -0.03 c -39.15,14.51 -77.29,32.12 -113.31,52.35 -290.46,163.07 -465.63,514.7 -416.52,836.1 7.09,46.38 18.46,91.56 33.7,135.16 l -162.87,179.79 -245.96,-12.75 c -28.1,-75.57 -48.93,-154.33 -61.33,-235.51 -77.09,-504.44 184.78,-1034 636.85,-1287.8 56.1,-31.5 115.32,-58.86 176.03,-81.36 148.86,-55.17 306.25,-82.57 463.53,-82.57 53.71,0 87.53,1.38 140.87,7.76 l -154.53,253.88 143.5,187.65"
         style="fill:#92dad1;fill-opacity:1;fill-rule:nonzero;stroke:none"
         id="path26" />
      <path
         d="m 1614.46,1529.5 c 4.66,-5.79 9.39,-11.55 14.2,-17.27 79.1,-94.23 174.33,-175.2 280.97,-236.67 77.41,-44.63 245.31,-141.38 332.47,-71.19 41.86,33.72 31.74,104.12 -4.75,143.57 -36.5,39.46 -89.95,57.25 -139.41,78.3 -263.64,112.26 -434.75,347.9 -529.49,611.51 -38.43,105.69 -61.48,223.28 -80.95,333.51 -2.18,12.32 -4.39,24.78 -9.34,36.29 -16.28,37.87 -61.78,58.4 -102.46,51.76 -9.43,-1.55 -18.75,-4.37 -26.89,-9.36 -19.96,-12.23 -30.19,-35.53 -36.22,-58.14 -22.95,-86.04 1.55,-163.52 20.55,-246.08 20.15,-87.54 51.48,-171.79 82.84,-255.81 48.11,-128.88 111.94,-252.96 198.48,-360.42"
         style="fill:#48ae9c;fill-opacity:1;fill-rule:nonzero;stroke:none"
         id="path28" />
      <g
         id="g30"
         transform="scale(10)">
        <text
           xml:space="preserve"
           transform="matrix(-0.973905,0.226956,0.226956,0.973905,224.563,131.098)"
           style="font-variant:normal;font-weight:normal;font-size:15px;font-family:Mali;-inkscape-font-specification:Mali-Regular;writing-mode:lr-tb;fill:#1b3c37;fill-opacity:1;fill-rule:nonzero;stroke:none"
           id="text34"><tspan
             x="0"
             y="0"
             id="tspan32">1</tspan></text>
        <text
           xml:space="preserve"
           transform="matrix(-0.961097,0.27621,0.27621,0.961097,218.167,132.617)"
           style="font-variant:normal;font-weight:normal;font-size:15px;font-family:Mali;-inkscape-font-specification:Mali-Regular;writing-mode:lr-tb;fill:#1b3c37;fill-opacity:1;fill-rule:nonzero;stroke:none"
           id="text38"><tspan
             x="0"
             y="0"
             id="tspan36">.</tspan></text>
        <text
           xml:space="preserve"
           transform="matrix(-0.910794,0.412862,0.412862,0.910794,209.607,135.061)"
           style="font-variant:normal;font-weight:normal;font-size:15px;font-family:Mali;-inkscape-font-specification:Mali-Regular;writing-mode:lr-tb;fill:#1b3c37;fill-opacity:1;fill-rule:nonzero;stroke:none"
           id="text42"><tspan
             x="0"
             y="0"
             id="tspan40">M</tspan></text>
        <text
           xml:space="preserve"
           transform="matrix(-0.842622,0.538506,0.538506,0.842622,199.058,139.868)"
           style="font-variant:normal;font-weight:normal;font-size:15px;font-family:Mali;-inkscape-font-specification:Mali-Regular;writing-mode:lr-tb;fill:#1b3c37;fill-opacity:1;fill-rule:nonzero;stroke:none"
           id="text46"><tspan
             x="0"
             y="0"
             id="tspan44">A</tspan></text>
        <text
           xml:space="preserve"
           transform="matrix(-0.76494,0.644101,0.644101,0.76494,190.571,145.25)"
           style="font-variant:normal;font-weight:normal;font-size:15px;font-family:Mali;-inkscape-font-specification:Mali-Regular;writing-mode:lr-tb;fill:#1b3c37;fill-opacity:1;fill-rule:nonzero;stroke:none"
           id="text50"><tspan
             x="0"
             y="0"
             id="tspan48">N</tspan></text>
        <text
           xml:space="preserve"
           transform="matrix(-0.684348,0.729155,0.729155,0.684348,182.346,152.21)"
           style="font-variant:normal;font-weight:normal;font-size:15px;font-family:Mali;-inkscape-font-specification:Mali-Regular;writing-mode:lr-tb;fill:#1b3c37;fill-opacity:1;fill-rule:nonzero;stroke:none"
           id="text54"><tspan
             x="0"
             y="0"
             id="tspan52">U</tspan></text>
        <text
           xml:space="preserve"
           transform="matrix(-0.61417,0.789174,0.789174,0.61417,175.677,159.364)"
           style="font-variant:normal;font-weight:normal;font-size:15px;font-family:Mali;-inkscape-font-specification:Mali-Regular;writing-mode:lr-tb;fill:#1b3c37;fill-opacity:1;fill-rule:nonzero;stroke:none"
           id="text58"><tspan
             x="0"
             y="0"
             id="tspan56">F</tspan></text>
        <text
           xml:space="preserve"
           transform="matrix(-0.556916,0.830569,0.830569,0.556916,171.584,164.466)"
           style="font-variant:normal;font-weight:normal;font-size:15px;font-family:Mali;-inkscape-font-specification:Mali-Regular;writing-mode:lr-tb;fill:#1b3c37;fill-opacity:1;fill-rule:nonzero;stroke:none"
           id="text62"><tspan
             x="0"
             y="0"
             id="tspan60">A</tspan></text>
        <text
           xml:space="preserve"
           transform="matrix(-0.488233,0.872713,0.872713,0.488233,166.384,172.141)"
           style="font-variant:normal;font-weight:normal;font-size:15px;font-family:Mali;-inkscape-font-specification:Mali-Regular;writing-mode:lr-tb;fill:#1b3c37;fill-opacity:1;fill-rule:nonzero;stroke:none"
           id="text66"><tspan
             x="0"
             y="0"
             id="tspan64">C</tspan></text>
        <text
           xml:space="preserve"
           transform="matrix(-0.423611,0.905844,0.905844,0.423611,161.279,181.35)"
           style="font-variant:normal;font-weight:normal;font-size:15px;font-family:Mali;-inkscape-font-specification:Mali-Regular;writing-mode:lr-tb;fill:#1b3c37;fill-opacity:1;fill-rule:nonzero;stroke:none"
           id="text70"><tspan
             x="0"
             y="0"
             id="tspan68">T</tspan></text>
        <text
           xml:space="preserve"
           transform="matrix(-0.36436,0.931258,0.931258,0.36436,157.789,188.743)"
           style="font-variant:normal;font-weight:normal;font-size:15px;font-family:Mali;-inkscape-font-specification:Mali-Regular;writing-mode:lr-tb;fill:#1b3c37;fill-opacity:1;fill-rule:nonzero;stroke:none"
           id="text74"><tspan
             x="0"
             y="0"
             id="tspan72">U</tspan></text>
        <text
           xml:space="preserve"
           transform="matrix(-0.303329,0.952886,0.952886,0.303329,154.203,197.922)"
           style="font-variant:normal;font-weight:normal;font-size:15px;font-family:Mali;-inkscape-font-specification:Mali-Regular;writing-mode:lr-tb;fill:#1b3c37;fill-opacity:1;fill-rule:nonzero;stroke:none"
           id="text78"><tspan
             x="0"
             y="0"
             id="tspan76">R</tspan></text>
        <text
           xml:space="preserve"
           transform="matrix(-0.254496,0.967074,0.967074,0.254496,151.368,206.948)"
           style="font-variant:normal;font-weight:normal;font-size:15px;font-family:Mali;-inkscape-font-specification:Mali-Regular;writing-mode:lr-tb;fill:#1b3c37;fill-opacity:1;fill-rule:nonzero;stroke:none"
           id="text82"><tspan
             x="0"
             y="0"
             id="tspan80">I</tspan></text>
        <text
           xml:space="preserve"
           transform="matrix(-0.201694,0.979449,0.979449,0.201694,149.664,213.175)"
           style="font-variant:normal;font-weight:normal;font-size:15px;font-family:Mali;-inkscape-font-specification:Mali-Regular;writing-mode:lr-tb;fill:#1b3c37;fill-opacity:1;fill-rule:nonzero;stroke:none"
           id="text86"><tspan
             x="0"
             y="0"
             id="tspan84">N</tspan></text>
        <text
           xml:space="preserve"
           transform="matrix(-0.135058,0.990838,0.990838,0.135058,147.459,223.84)"
           style="font-variant:normal;font-weight:normal;font-size:15px;font-family:Mali;-inkscape-font-specification:Mali-Regular;writing-mode:lr-tb;fill:#1b3c37;fill-opacity:1;fill-rule:nonzero;stroke:none"
           id="text90"><tspan
             x="0"
             y="0"
             id="tspan88">G</tspan></text>
      </g>
      <path
         d="m 3726.84,2540.51 c -35.63,150.58 -97.61,291.76 -182.27,417.61 l -106.46,-206.6 -239.3,-72.33 c 124.99,-206.86 156.77,-465.47 75.46,-691.69 -70.82,-197.04 -218.19,-355.97 -414.93,-447.5 -57.47,-26.74 -117.55,-46.83 -178.93,-60.64 l -152.64,-202.03 150.43,-244.44 c 123.64,18.95 252.99,53.57 367.38,106.78 304.42,141.62 533.2,389.69 644.2,698.48 80.16,223.06 92.98,465.93 37.06,702.36"
         style="fill:#48ae9c;fill-opacity:1;fill-rule:nonzero;stroke:none"
         id="path92" />
      <path
         d="m 3631.24,2055.39 c 10.47,70.53 27.78,152.21 -13.29,217.28 -36.49,57.83 -105.72,72.43 -155.16,21.3 -52.81,-54.6 -41.67,-126.6 -55.26,-195.59 -8.82,-44.75 -17.6,-89.02 -30.61,-132.81 -20.05,-67.51 -50.09,-154.26 -91.1,-211.36 -51.86,-72.23 -118.46,-131.51 -190,-183.66 -57.75,-42.09 -185.58,-86.95 -177.25,-170.62 2.26,-22.66 10.99,-44.26 22.06,-64.17 6.32,-11.38 13.63,-22.55 23.89,-30.56 55.06,-42.99 139.74,-1.56 189.52,28.58 198.51,120.15 373.48,354.79 444.53,575.47 15.33,47.6 25.35,96.73 32.67,146.14"
         style="fill:#2c625c;fill-opacity:1;fill-rule:nonzero;stroke:none"
         id="path94" />
      <g
         id="g96"
         transform="scale(10)">
        <text
           xml:space="preserve"
           transform="matrix(0.0199182,-0.999802,-0.999802,-0.0199182,346.235,225.773)"
           style="font-variant:normal;font-weight:normal;font-size:15px;font-family:Mali;-inkscape-font-specification:Mali-Regular;writing-mode:lr-tb;fill:#f7fcef;fill-opacity:1;fill-rule:nonzero;stroke:none"
           id="text100"><tspan
             x="0"
             y="0"
             id="tspan98">3</tspan></text>
        <text
           xml:space="preserve"
           transform="matrix(-0.0977425,-0.995212,-0.995212,0.0977425,346.121,212.489)"
           style="font-variant:normal;font-weight:normal;font-size:15px;font-family:Mali;-inkscape-font-specification:Mali-Regular;writing-mode:lr-tb;fill:#f7fcef;fill-opacity:1;fill-rule:nonzero;stroke:none"
           id="text104"><tspan
             x="0"
             y="0"
             id="tspan102">.</tspan></text>
        <text
           xml:space="preserve"
           transform="matrix(-0.176307,-0.984335,-0.984335,0.176307,345.823,208.277)"
           style="font-variant:normal;font-weight:normal;font-size:15px;font-family:Mali;-inkscape-font-specification:Mali-Regular;writing-mode:lr-tb;fill:#f7fcef;fill-opacity:1;fill-rule:nonzero;stroke:none"
           id="text108"><tspan
             x="0"
             y="0"
             id="tspan106">R</tspan></text>
        <text
           xml:space="preserve"
           transform="matrix(-0.283189,-0.959064,-0.959064,0.283189,344.165,199.066)"
           style="font-variant:normal;font-weight:normal;font-size:15px;font-family:Mali;-inkscape-font-specification:Mali-Regular;writing-mode:lr-tb;fill:#f7fcef;fill-opacity:1;fill-rule:nonzero;stroke:none"
           id="text112"><tspan
             x="0"
             y="0"
             id="tspan110">E</tspan></text>
        <text
           xml:space="preserve"
           transform="matrix(-0.396784,-0.917912,-0.917912,0.396784,341.893,191.084)"
           style="font-variant:normal;font-weight:normal;font-size:15px;font-family:Mali;-inkscape-font-specification:Mali-Regular;writing-mode:lr-tb;fill:#f7fcef;fill-opacity:1;fill-rule:nonzero;stroke:none"
           id="text116"><tspan
             x="0"
             y="0"
             id="tspan114">C</tspan></text>
        <text
           xml:space="preserve"
           transform="matrix(-0.511798,-0.859106,-0.859106,0.511798,337.769,181.562)"
           style="font-variant:normal;font-weight:normal;font-size:15px;font-family:Mali;-inkscape-font-specification:Mali-Regular;writing-mode:lr-tb;fill:#f7fcef;fill-opacity:1;fill-rule:nonzero;stroke:none"
           id="text120"><tspan
             x="0"
             y="0"
             id="tspan118">Y</tspan></text>
        <text
           xml:space="preserve"
           transform="matrix(-0.618153,-0.786058,-0.786058,0.618153,332.944,173.367)"
           style="font-variant:normal;font-weight:normal;font-size:15px;font-family:Mali;-inkscape-font-specification:Mali-Regular;writing-mode:lr-tb;fill:#f7fcef;fill-opacity:1;fill-rule:nonzero;stroke:none"
           id="text124"><tspan
             x="0"
             y="0"
             id="tspan122">C</tspan></text>
        <text
           xml:space="preserve"
           transform="matrix(-0.704559,-0.709646,-0.709646,0.704559,326.462,165.23)"
           style="font-variant:normal;font-weight:normal;font-size:15px;font-family:Mali;-inkscape-font-specification:Mali-Regular;writing-mode:lr-tb;fill:#f7fcef;fill-opacity:1;fill-rule:nonzero;stroke:none"
           id="text128"><tspan
             x="0"
             y="0"
             id="tspan126">L</tspan></text>
        <text
           xml:space="preserve"
           transform="matrix(-0.764448,-0.644685,-0.644685,0.764448,321.049,159.807)"
           style="font-variant:normal;font-weight:normal;font-size:15px;font-family:Mali;-inkscape-font-specification:Mali-Regular;writing-mode:lr-tb;fill:#f7fcef;fill-opacity:1;fill-rule:nonzero;stroke:none"
           id="text132"><tspan
             x="0"
             y="0"
             id="tspan130">I</tspan></text>
        <text
           xml:space="preserve"
           transform="matrix(-0.828174,-0.56047,-0.560471,0.828174,316.312,155.641)"
           style="font-variant:normal;font-weight:normal;font-size:15px;font-family:Mali;-inkscape-font-specification:Mali-Regular;writing-mode:lr-tb;fill:#f7fcef;fill-opacity:1;fill-rule:nonzero;stroke:none"
           id="text136"><tspan
             x="0"
             y="0"
             id="tspan134">N</tspan></text>
        <text
           xml:space="preserve"
           transform="matrix(-0.89338,-0.449302,-0.449302,0.89338,307.403,149.592)"
           style="font-variant:normal;font-weight:normal;font-size:15px;font-family:Mali;-inkscape-font-specification:Mali-Regular;writing-mode:lr-tb;fill:#f7fcef;fill-opacity:1;fill-rule:nonzero;stroke:none"
           id="text140"><tspan
             x="0"
             y="0"
             id="tspan138">G</tspan></text>
      </g>
      <path
         d="m 1753.48,1941.86 c 1.45,-2.82 2.91,-5.63 4.39,-8.43 1.9,-3.59 6.35,-4.97 9.94,-3.07 3.6,1.9 4.97,6.36 3.07,9.95 -1.46,2.74 -2.89,5.5 -4.31,8.26 -1.85,3.62 -6.29,5.05 -9.9,3.19 -3.62,-1.85 -5.04,-6.28 -3.19,-9.9 z m 38.07,-65.84 c 1.72,-2.67 3.45,-5.32 5.21,-7.96 2.24,-3.38 6.81,-4.3 10.19,-2.06 3.39,2.25 4.31,6.81 2.06,10.2 -1.72,2.59 -3.42,5.19 -5.11,7.8 -2.2,3.41 -6.76,4.39 -10.17,2.19 -3.41,-2.21 -4.39,-6.76 -2.18,-10.17 z m 44.3,-61.8 c 1.97,-2.48 3.95,-4.95 5.95,-7.41 2.56,-3.16 7.19,-3.64 10.34,-1.08 3.16,2.55 3.64,7.19 1.08,10.34 -1.96,2.42 -3.9,4.85 -5.83,7.29 -2.52,3.18 -7.15,3.72 -10.34,1.2 -3.18,-2.53 -3.72,-7.15 -1.2,-10.34 z m 49.92,-57.34 c 2.18,-2.29 4.39,-4.57 6.6,-6.83 2.84,-2.91 7.5,-2.96 10.4,-0.13 2.91,2.84 2.96,7.5 0.12,10.41 -2.17,2.22 -4.34,4.46 -6.49,6.71 -2.8,2.94 -7.46,3.05 -10.4,0.24 -2.93,-2.8 -3.04,-7.46 -0.23,-10.4 z m 54.95,-52.52 c 2.39,-2.09 4.79,-4.16 7.2,-6.22 3.09,-2.63 7.73,-2.26 10.37,0.83 2.63,3.09 2.26,7.73 -0.83,10.37 -2.37,2.02 -4.72,4.05 -7.07,6.1 -3.06,2.67 -7.71,2.36 -10.38,-0.71 -2.67,-3.06 -2.35,-7.7 0.71,-10.37 z m 59.49,-47.34 c 2.56,-1.87 5.14,-3.71 7.73,-5.54 3.32,-2.35 7.91,-1.56 10.25,1.76 2.35,3.32 1.56,7.91 -1.75,10.25 -2.55,1.8 -5.08,3.61 -7.6,5.44 -3.3,2.38 -7.89,1.65 -10.28,-1.64 -2.38,-3.29 -1.65,-7.89 1.65,-10.27 z m 63.55,-41.75 c 2.74,-1.62 5.47,-3.22 8.22,-4.81 3.52,-2.03 8.02,-0.82 10.05,2.7 2.03,3.52 0.82,8.01 -2.69,10.04 -2.7,1.56 -5.39,3.14 -8.07,4.73 -3.5,2.07 -8.01,0.91 -10.08,-2.58 -2.07,-3.5 -0.92,-8.01 2.57,-10.08 z m 67.19,-35.68 c 2.87,-1.35 5.75,-2.69 8.64,-4.01 3.69,-1.69 8.06,-0.06 9.74,3.63 1.69,3.7 0.07,8.06 -3.63,9.75 -2.83,1.3 -5.66,2.61 -8.48,3.94 -3.67,1.73 -8.06,0.16 -9.79,-3.52 -1.73,-3.67 -0.16,-8.06 3.52,-9.79 z m 70.31,-29.05 c 2.99,-1.07 5.98,-2.11 8.98,-3.14 3.84,-1.31 8.03,0.74 9.34,4.58 1.32,3.85 -0.73,8.03 -4.58,9.34 -2.94,1.01 -5.88,2.03 -8.81,3.08 -3.82,1.36 -8.03,-0.64 -9.39,-4.46 -1.37,-3.83 0.63,-8.04 4.46,-9.4 z m 72.84,-21.92 c 3.07,-0.76 6.15,-1.51 9.24,-2.23 3.95,-0.93 7.91,1.52 8.84,5.47 0.93,3.96 -1.52,7.92 -5.47,8.85 -3.03,0.71 -6.05,1.44 -9.07,2.19 -3.95,0.98 -7.94,-1.43 -8.91,-5.37 -0.98,-3.94 1.42,-7.93 5.37,-8.91 z m 74.59,-14.73 c 3.14,-0.47 6.28,-0.92 9.42,-1.35 4.02,-0.54 7.73,2.27 8.28,6.3 0.55,4.02 -2.27,7.73 -6.29,8.28 -3.09,0.42 -6.17,0.86 -9.24,1.32 -4.02,0.59 -7.76,-2.18 -8.36,-6.2 -0.6,-4.02 2.18,-7.76 6.19,-8.35 z m 75.64,-7.65 c 3.16,-0.17 6.33,-0.32 9.5,-0.46 4.05,-0.17 7.49,2.98 7.66,7.04 0.17,4.05 -2.98,7.49 -7.03,7.66 -3.11,0.13 -6.22,0.28 -9.33,0.45 -4.06,0.22 -7.52,-2.88 -7.74,-6.94 -0.22,-4.06 2.89,-7.53 6.94,-7.75 z m 76.01,-0.66 c 3.16,0.12 6.33,0.26 9.49,0.41 4.06,0.19 7.19,3.64 7,7.7 -0.2,4.06 -3.65,7.19 -7.7,6.99 -3.11,-0.15 -6.22,-0.28 -9.33,-0.39 -4.06,-0.15 -7.23,-3.57 -7.08,-7.63 0.15,-4.05 3.56,-7.23 7.62,-7.08 z m 75.75,6.22 c 3.14,0.41 6.28,0.82 9.42,1.26 4.02,0.56 6.83,4.28 6.27,8.3 -0.56,4.03 -4.28,6.83 -8.3,6.27 -3.08,-0.43 -6.17,-0.84 -9.26,-1.23 -4.03,-0.52 -6.88,-4.2 -6.36,-8.23 0.51,-4.03 4.2,-6.88 8.23,-6.37 z m 74.88,13.02 c 3.09,0.68 6.18,1.38 9.27,2.1 3.96,0.92 6.42,4.88 5.5,8.83 -0.92,3.96 -4.88,6.42 -8.83,5.5 -3.04,-0.7 -6.07,-1.39 -9.11,-2.06 -3.97,-0.88 -6.47,-4.8 -5.6,-8.77 0.88,-3.97 4.8,-6.48 8.77,-5.6 z m 73.4,19.75 c 3.02,0.96 6.04,1.94 9.04,2.94 3.86,1.27 5.95,5.44 4.67,9.29 -1.28,3.86 -5.44,5.95 -9.29,4.67 -2.96,-0.98 -5.92,-1.94 -8.88,-2.89 -3.87,-1.23 -6.01,-5.37 -4.78,-9.24 1.24,-3.87 5.37,-6.01 9.24,-4.77 z m 71.29,26.42 c 2.92,1.24 5.83,2.49 8.73,3.77 3.72,1.63 5.41,5.97 3.78,9.69 -1.63,3.72 -5.97,5.41 -9.69,3.78 -2.85,-1.25 -5.71,-2.49 -8.57,-3.7 -3.74,-1.59 -5.48,-5.91 -3.89,-9.65 1.58,-3.74 5.9,-5.48 9.64,-3.89 z m 68.49,33.03 c 2.79,1.51 5.57,3.04 8.33,4.59 3.55,1.98 4.82,6.46 2.83,10.01 -1.98,3.54 -6.46,4.81 -10.01,2.83 -2.71,-1.52 -5.43,-3.02 -8.17,-4.5 -3.57,-1.94 -4.89,-6.41 -2.95,-9.98 1.94,-3.57 6.4,-4.89 9.97,-2.95 z m 64.97,39.54 c 2.63,1.78 5.24,3.58 7.84,5.39 3.33,2.33 4.15,6.91 1.82,10.25 -2.32,3.33 -6.91,4.15 -10.24,1.82 -2.55,-1.78 -5.11,-3.54 -7.68,-5.29 -3.36,-2.28 -4.24,-6.85 -1.95,-10.21 2.28,-3.37 6.85,-4.24 10.21,-1.96 z m 60.68,45.89 c 2.42,2.04 4.84,4.09 7.24,6.17 3.07,2.65 3.41,7.3 0.76,10.37 -2.66,3.08 -7.3,3.42 -10.38,0.76 -2.35,-2.03 -4.71,-4.04 -7.09,-6.04 -3.11,-2.61 -3.51,-7.25 -0.9,-10.36 2.62,-3.11 7.26,-3.51 10.37,-0.9 z m 55.57,52.01 c 2.2,2.3 4.38,4.6 6.55,6.93 2.77,2.97 2.61,7.62 -0.36,10.39 -2.97,2.77 -7.63,2.61 -10.4,-0.36 -2.12,-2.27 -4.26,-4.53 -6.41,-6.77 -2.81,-2.94 -2.71,-7.59 0.22,-10.41 2.93,-2.81 7.59,-2.71 10.4,0.22 z m 49.68,57.68 c 1.94,2.51 3.86,5.04 5.77,7.57 2.44,3.25 1.79,7.86 -1.46,10.3 -3.24,2.45 -7.85,1.79 -10.3,-1.45 -1.87,-2.49 -3.75,-4.96 -5.65,-7.42 -2.49,-3.21 -1.9,-7.83 1.32,-10.32 3.21,-2.48 7.83,-1.89 10.31,1.32 z m 43.36,62.53 c 1.68,2.69 3.33,5.4 4.97,8.11 2.1,3.48 0.98,8 -2.5,10.1 -3.48,2.1 -8,0.98 -10.1,-2.5 -1.61,-2.66 -3.23,-5.32 -4.87,-7.96 -2.14,-3.45 -1.08,-7.99 2.38,-10.13 3.45,-2.14 7.98,-1.08 10.12,2.38 z m 36.82,66.56 c 1.4,2.84 2.78,5.7 4.13,8.56 1.75,3.67 0.19,8.06 -3.48,9.8 -3.67,1.75 -8.06,0.18 -9.8,-3.49 -1.34,-2.81 -2.69,-5.61 -4.06,-8.4 -1.79,-3.65 -0.28,-8.05 3.37,-9.84 3.65,-1.79 8.05,-0.28 9.84,3.37 z m 30.1,69.84 c 1.11,2.96 2.21,5.94 3.28,8.92 1.38,3.82 -0.6,8.04 -4.42,9.42 -3.82,1.38 -8.03,-0.6 -9.41,-4.43 -1.06,-2.92 -2.13,-5.84 -3.22,-8.75 -1.43,-3.81 0.5,-8.05 4.3,-9.47 3.81,-1.43 8.05,0.5 9.47,4.31 z m 23.25,72.39 c 0.82,3.06 1.63,6.13 2.42,9.2 1.01,3.93 -1.36,7.94 -5.3,8.95 -3.93,1.01 -7.94,-1.36 -8.95,-5.3 -0.78,-3.01 -1.57,-6.02 -2.38,-9.02 -1.05,-3.92 1.27,-7.96 5.19,-9.02 3.93,-1.05 7.96,1.27 9.02,5.19 z m 16.28,74.27 c 0.53,3.13 1.04,6.26 1.53,9.39 0.64,4.01 -2.1,7.78 -6.12,8.41 -4.01,0.63 -7.78,-2.11 -8.41,-6.12 -0.48,-3.07 -0.99,-6.14 -1.51,-9.21 -0.68,-4 2.02,-7.8 6.02,-8.48 4.01,-0.68 7.8,2.01 8.49,6.02 z m 9.17,75.49 c 0.23,3.16 0.45,6.32 0.64,9.49 0.25,4.05 -2.83,7.54 -6.89,7.79 -4.05,0.25 -7.54,-2.84 -7.79,-6.89 -0.19,-3.11 -0.4,-6.21 -0.63,-9.31 -0.3,-4.06 2.74,-7.58 6.8,-7.88 4.05,-0.3 7.57,2.75 7.87,6.8 z m 1.93,76.02 c -0.07,3.17 -0.16,6.34 -0.27,9.51 -0.14,4.06 -3.55,7.23 -7.61,7.09 -4.06,-0.14 -7.24,-3.55 -7.1,-7.61 0.11,-3.11 0.2,-6.22 0.27,-9.33 0.1,-4.06 3.47,-7.28 7.53,-7.18 4.06,0.09 7.28,3.46 7.18,7.52 z m -5.46,75.86 c -0.38,3.15 -0.79,6.3 -1.21,9.44 -0.54,4.03 -4.25,6.85 -8.27,6.31 -4.03,-0.54 -6.85,-4.25 -6.31,-8.27 0.41,-3.09 0.81,-6.17 1.19,-9.26 0.49,-4.03 4.16,-6.9 8.19,-6.41 4.03,0.49 6.9,4.16 6.41,8.19 z m -13,74.96 c -0.7,3.09 -1.42,6.18 -2.16,9.27 -0.95,3.95 -4.92,6.38 -8.87,5.43 -3.95,-0.94 -6.39,-4.92 -5.44,-8.87 0.73,-3.02 1.43,-6.05 2.12,-9.08 0.9,-3.96 4.84,-6.44 8.8,-5.55 3.96,0.9 6.45,4.84 5.55,8.8 z m -20.64,73.25 c -1.02,3 -2.06,5.99 -3.12,8.98 -1.36,3.83 -5.56,5.84 -9.39,4.48 -3.83,-1.36 -5.84,-5.56 -4.48,-9.39 1.04,-2.93 2.06,-5.86 3.06,-8.8 1.3,-3.85 5.48,-5.91 9.33,-4.6 3.84,1.3 5.9,5.48 4.6,9.33 z m -28.31,70.65 c -1.34,2.87 -2.69,5.74 -4.07,8.6 -1.77,3.66 -6.16,5.2 -9.82,3.43 -3.66,-1.76 -5.2,-6.16 -3.44,-9.82 1.35,-2.8 2.68,-5.6 3.99,-8.41 1.71,-3.69 6.09,-5.29 9.77,-3.57 3.68,1.71 5.28,6.09 3.57,9.77 z m -35.89,67.19 c -1.66,2.73 -3.33,5.43 -5.02,8.13 -2.16,3.44 -6.7,4.48 -10.14,2.32 -3.44,-2.16 -4.48,-6.7 -2.32,-10.14 1.65,-2.64 3.29,-5.29 4.91,-7.95 2.11,-3.47 6.63,-4.57 10.1,-2.46 3.48,2.11 4.58,6.63 2.47,10.1 z m -43.13,62.79 c -1.94,2.51 -3.9,5.02 -5.87,7.5 -2.53,3.19 -7.16,3.72 -10.34,1.2 -3.18,-2.53 -3.71,-7.15 -1.19,-10.34 1.93,-2.43 3.85,-4.88 5.75,-7.35 2.48,-3.21 7.1,-3.81 10.32,-1.33 3.21,2.48 3.81,7.1 1.33,10.32 z m -49.66,57.69 c -2.19,2.29 -4.4,4.57 -6.63,6.83 -2.85,2.9 -7.5,2.94 -10.4,0.09 -2.9,-2.85 -2.94,-7.5 -0.09,-10.4 2.18,-2.22 4.34,-4.45 6.49,-6.69 2.81,-2.94 7.47,-3.04 10.41,-0.23 2.93,2.81 3.03,7.47 0.22,10.4 z m -55.38,52.16 c -2.42,2.06 -4.85,4.09 -7.29,6.12 -3.12,2.59 -7.76,2.15 -10.35,-0.97 -2.6,-3.13 -2.16,-7.77 0.97,-10.36 2.39,-1.99 4.77,-3.98 7.14,-6 3.09,-2.63 7.74,-2.25 10.37,0.84 2.63,3.1 2.25,7.74 -0.84,10.37 z m -60.3,46.33 c -2.61,1.81 -5.22,3.6 -7.84,5.37 -3.37,2.28 -7.94,1.39 -10.22,-1.97 -2.27,-3.37 -1.39,-7.94 1.98,-10.22 2.57,-1.74 5.14,-3.49 7.69,-5.27 3.34,-2.31 7.92,-1.48 10.24,1.86 2.31,3.33 1.49,7.92 -1.85,10.23 z m -64.45,40.32 c -2.76,1.55 -5.53,3.08 -8.31,4.6 -3.56,1.95 -8.03,0.64 -9.98,-2.92 -1.95,-3.57 -0.64,-8.03 2.92,-9.98 2.73,-1.5 5.45,-3.01 8.16,-4.53 3.54,-1.99 8.03,-0.73 10.02,2.81 1.99,3.54 0.73,8.02 -2.81,10.02 z m -67.89,34.16 c -2.89,1.3 -5.78,2.57 -8.69,3.84 -3.72,1.61 -8.06,-0.1 -9.67,-3.82 -1.62,-3.73 0.09,-8.06 3.81,-9.68 2.86,-1.24 5.7,-2.49 8.54,-3.76 3.71,-1.66 8.06,0 9.72,3.7 1.66,3.71 0,8.06 -3.71,9.72 z m -70.67,27.93 c -3,1.03 -5.99,2.04 -9,3.04 -3.86,1.28 -8.02,-0.8 -9.3,-4.66 -1.28,-3.85 0.8,-8.02 4.66,-9.3 2.95,-0.98 5.9,-1.98 8.84,-2.99 3.85,-1.33 8.03,0.71 9.36,4.56 1.32,3.84 -0.72,8.02 -4.56,9.35 z m -72.86,21.57 c -3.08,0.77 -6.16,1.52 -9.24,2.25 -3.95,0.94 -7.92,-1.51 -8.85,-5.46 -0.94,-3.95 1.5,-7.92 5.45,-8.85 3.03,-0.72 6.06,-1.46 9.08,-2.21 3.94,-0.98 7.93,1.42 8.92,5.36 0.98,3.94 -1.42,7.93 -5.36,8.91 z m -74.49,15.11 c -3.13,0.5 -6.26,0.97 -9.4,1.43 -4.02,0.59 -7.75,-2.2 -8.34,-6.22 -0.59,-4.02 2.2,-7.75 6.22,-8.34 3.08,-0.45 6.16,-0.92 9.24,-1.4 4.01,-0.63 7.77,2.11 8.41,6.12 0.63,4.02 -2.11,7.78 -6.13,8.41 z m -75.53,8.49 c -3.17,0.21 -6.33,0.4 -9.49,0.58 -4.06,0.23 -7.53,-2.88 -7.76,-6.93 -0.23,-4.06 2.88,-7.53 6.93,-7.76 3.11,-0.17 6.22,-0.36 9.33,-0.57 4.05,-0.28 7.56,2.79 7.83,6.84 0.28,4.06 -2.79,7.56 -6.84,7.84 z m -76,1.66 c -3.17,-0.07 -6.34,-0.17 -9.51,-0.28 -4.06,-0.14 -7.23,-3.55 -7.09,-7.61 0.15,-4.06 3.55,-7.24 7.61,-7.09 3.11,0.11 6.22,0.2 9.34,0.27 4.06,0.1 7.27,3.47 7.18,7.53 -0.1,4.07 -3.47,7.28 -7.53,7.18 z m -75.85,-5.36 c -3.15,-0.37 -6.29,-0.76 -9.44,-1.17 -4.02,-0.53 -6.86,-4.22 -6.34,-8.25 0.53,-4.03 4.22,-6.87 8.25,-6.34 3.08,0.4 6.17,0.79 9.26,1.15 4.04,0.48 6.92,4.14 6.44,8.17 -0.48,4.04 -4.13,6.92 -8.17,6.44 z m -75,-12.61 c -3.1,-0.68 -6.2,-1.38 -9.28,-2.1 -3.96,-0.92 -6.42,-4.87 -5.5,-8.83 0.92,-3.96 4.87,-6.42 8.83,-5.5 3.03,0.71 6.06,1.39 9.1,2.06 3.97,0.87 6.48,4.79 5.61,8.76 -0.87,3.97 -4.8,6.48 -8.76,5.61 z m -73.4,-20.06 c -3.01,-0.99 -6.02,-2.01 -9.02,-3.04 -3.84,-1.32 -5.88,-5.51 -4.56,-9.35 1.32,-3.84 5.51,-5.88 9.35,-4.56 2.94,1.01 5.89,2 8.84,2.98 3.86,1.27 5.95,5.43 4.68,9.28 -1.27,3.86 -5.43,5.96 -9.29,4.69 z m -70.92,-27.63 c -2.89,-1.31 -5.77,-2.64 -8.64,-3.99 -3.68,-1.73 -5.26,-6.11 -3.53,-9.78 1.73,-3.68 6.11,-5.26 9.78,-3.54 2.82,1.32 5.64,2.62 8.46,3.91 3.7,1.67 5.34,6.03 3.67,9.73 -1.68,3.7 -6.04,5.34 -9.74,3.67 z m -67.52,-35.1 c -2.73,-1.6 -5.46,-3.22 -8.17,-4.86 -3.48,-2.09 -4.6,-6.62 -2.51,-10.09 2.1,-3.48 6.62,-4.6 10.1,-2.51 2.67,1.61 5.34,3.2 8.02,4.77 3.51,2.06 4.68,6.56 2.63,10.07 -2.06,3.5 -6.57,4.68 -10.07,2.62 z m -63.68,-41.5 c -2.57,-1.85 -5.13,-3.71 -7.67,-5.59 -3.27,-2.42 -3.97,-7.02 -1.55,-10.29 2.41,-3.27 7.01,-3.96 10.28,-1.55 2.5,1.85 5.01,3.68 7.54,5.49 3.29,2.38 4.04,6.97 1.67,10.27 -2.38,3.3 -6.98,4.04 -10.27,1.67 z m -59.54,-47.22 c -2.39,-2.08 -4.77,-4.17 -7.13,-6.28 -3.03,-2.7 -3.3,-7.35 -0.6,-10.39 2.7,-3.03 7.35,-3.3 10.39,-0.6 2.32,2.07 4.65,4.13 7,6.17 3.06,2.67 3.38,7.32 0.71,10.38 -2.66,3.06 -7.31,3.38 -10.37,0.72 z m -55,-52.45 c -2.19,-2.28 -4.37,-4.58 -6.53,-6.89 -2.78,-2.97 -2.63,-7.62 0.34,-10.4 2.96,-2.78 7.62,-2.63 10.39,0.34 2.13,2.27 4.27,4.53 6.42,6.77 2.81,2.94 2.72,7.59 -0.22,10.4 -2.93,2.81 -7.59,2.71 -10.4,-0.22 z m -50.07,-57.17 c -1.98,-2.47 -3.94,-4.96 -5.89,-7.45 -2.5,-3.2 -1.94,-7.83 1.27,-10.33 3.2,-2.5 7.82,-1.93 10.32,1.27 1.92,2.45 3.85,4.89 5.79,7.32 2.54,3.18 2.02,7.81 -1.15,10.34 -3.17,2.54 -7.8,2.02 -10.34,-1.15 z m -44.75,-61.44 c -1.75,-2.64 -3.48,-5.29 -5.2,-7.96 -2.2,-3.41 -1.22,-7.96 2.2,-10.17 3.41,-2.2 7.96,-1.22 10.17,2.2 1.68,2.61 3.39,5.22 5.1,7.82 2.24,3.39 1.31,7.95 -2.07,10.19 -3.39,2.24 -7.96,1.31 -10.2,-2.08 z m -38.98,-65.27 c -1.5,-2.79 -2.99,-5.59 -4.45,-8.4 -1.88,-3.61 -0.48,-8.05 3.12,-9.93 3.6,-1.88 8.05,-0.48 9.93,3.12 1.43,2.76 2.89,5.52 4.36,8.26 1.92,3.58 0.57,8.04 -3.01,9.96 -3.58,1.92 -8.03,0.57 -9.95,-3.01 z m -32.74,-68.64 c -1.23,-2.92 -2.44,-5.85 -3.63,-8.79 -1.52,-3.77 0.29,-8.06 4.06,-9.58 3.76,-1.53 8.05,0.29 9.58,4.05 1.17,2.89 2.35,5.76 3.56,8.63 1.57,3.75 -0.2,8.06 -3.94,9.63 -3.75,1.57 -8.06,-0.19 -9.63,-3.94 z m -25.95,-71.5 c -0.93,-3.03 -1.84,-6.07 -2.74,-9.11 -1.14,-3.9 1.09,-7.99 4.99,-9.13 3.89,-1.15 7.98,1.08 9.13,4.98 0.87,2.99 1.77,5.96 2.68,8.94 1.2,3.88 -0.98,7.99 -4.87,9.19 -3.88,1.19 -8,-0.99 -9.19,-4.87 z m -18.6,-73.77 c -0.62,-3.11 -1.21,-6.23 -1.78,-9.35 -0.74,-3.99 1.91,-7.83 5.9,-8.56 4,-0.73 7.83,1.91 8.57,5.91 0.56,3.05 1.14,6.1 1.74,9.15 0.79,3.98 -1.81,7.85 -5.79,8.64 -3.99,0.79 -7.86,-1.81 -8.64,-5.79 z m -10.72,-75.33 c -0.27,-3.16 -0.53,-6.32 -0.76,-9.48 -0.29,-4.05 2.75,-7.58 6.8,-7.87 4.05,-0.3 7.58,2.74 7.87,6.8 0.23,3.09 0.48,6.18 0.75,9.27 0.35,4.05 -2.64,7.61 -6.69,7.97 -4.05,0.35 -7.62,-2.65 -7.97,-6.69 z m -2.37,-76.09 c 0.09,-3.18 0.19,-6.35 0.31,-9.52 0.16,-4.06 3.59,-7.22 7.65,-7.06 4.05,0.16 7.22,3.58 7.05,7.64 -0.12,3.1 -0.22,6.21 -0.3,9.31 -0.1,4.06 -3.48,7.27 -7.54,7.17 -4.06,-0.11 -7.27,-3.48 -7.16,-7.54 z m 6.31,-75.92 c 0.45,-3.15 0.91,-6.29 1.41,-9.42 0.63,-4.02 4.39,-6.76 8.41,-6.13 4.01,0.63 6.75,4.4 6.12,8.41 -0.48,3.06 -0.94,6.13 -1.38,9.21 -0.57,4.02 -4.29,6.82 -8.31,6.25 -4.03,-0.57 -6.82,-4.3 -6.25,-8.32 z m 15.08,-74.67 c 0.8,-3.07 1.63,-6.13 2.48,-9.19 1.08,-3.92 5.14,-6.21 9.05,-5.12 3.92,1.08 6.21,5.14 5.12,9.05 -0.83,2.99 -1.64,5.99 -2.42,9 -1.04,3.93 -5.06,6.28 -8.99,5.25 -3.93,-1.04 -6.28,-5.06 -5.24,-8.99 z m 23.4,-72.45 0.34,-0.89 c 1.14,-2.95 2.3,-5.91 3.49,-8.85 1.51,-3.77 5.8,-5.6 9.56,-4.08 3.77,1.51 5.6,5.79 4.09,9.56 -1.16,2.89 -2.3,5.78 -3.42,8.68 l -0.33,0.86 c -1.46,3.79 -5.72,5.68 -9.51,4.22 -3.79,-1.45 -5.68,-5.71 -4.22,-9.5"
         style="fill:#1b3c37;fill-opacity:1;fill-rule:nonzero;stroke:none"
         id="path142" />
      <g
         id="g144"
         transform="scale(10)">
        <text
           xml:space="preserve"
           transform="matrix(1,0,0,-1,363.913,62.3172)"
           style="font-variant:normal;font-weight:bold;font-size:11.6457px;font-family:Mali;-inkscape-font-specification:Mali-Bold;writing-mode:lr-tb;fill:#1b3c37;fill-opacity:1;fill-rule:nonzero;stroke:none"
           id="text148"><tspan
             x="0 6.9874201 10.574296 14.766747 22.825571 30.27882 38.919147 46.547081 55.18819 61.942112 67.881416 76.720505"
             y="0"
             sodipodi:role="line"
             id="tspan146">3. RECYCLING</tspan></text>
        <text
           xml:space="preserve"
           transform="matrix(1,0,0,-1,379.013,50.4942)"
           style="font-variant:normal;font-weight:normal;font-size:8.46138px;font-family:Mali;-inkscape-font-specification:Mali-Regular;writing-mode:lr-tb;fill:#1b3c37;fill-opacity:1;fill-rule:nonzero;stroke:none"
           id="text154"><tspan
             x="0 4.450686 9.4682846 13.715897 18.953491 25.69721 28.404852 30.994036 36.214706 40.326939 44.955311 51.699032 54.406673 59.771187 64.788788 66.91259 71.930191 76.177803 78.885445 82.997673 85.586861 89.309868"
             y="0"
             sodipodi:role="line"
             id="tspan150">Lorem ipsum dolor sit </tspan><tspan
             x="0 5.2714396 12.01516 17.252754 20.975761 23.514175 26.221817 31.197107 36.214706 40.902309 45.014542 50.252136 55.227428 58.950436 64.188026 67.911034 72.539413 77.777008 82.02462"
             y="10.1531"
             sodipodi:role="line"
             id="tspan152">amet, consectetuer.</tspan></text>
      </g>
      <path
         d="m 3805.59,806.84 c -20.99,1.808 -63.23,-0.488 -80.59,13.949 -5.11,4.242 -9.16,9.633 -12.51,15.352 -11.04,18.879 -9.96,35.531 -9.66,56.519 0.32,22.91 0.65,45.82 0.98,68.731 0.64,45.829 1.3,91.649 1.94,137.479 0.39,27.61 1.08,56.41 13.95,80.85 17,32.28 53.66,51.43 61.52,87.07 7.93,-1.47 10.06,-0.73 12.18,0 2.13,0.73 4.25,1.46 12.19,0 V 806.84"
         style="fill:#92dad1;fill-opacity:1;fill-rule:nonzero;stroke:none"
         id="path156" />
      <path
         d="m 3785.84,806.84 c 20.99,1.808 63.21,-0.488 80.59,13.949 5.1,4.242 9.16,9.633 12.51,15.352 11.04,18.879 9.96,35.531 9.65,56.519 -0.32,22.91 -0.64,45.82 -0.97,68.731 -0.65,45.829 -1.3,91.649 -1.95,137.479 -0.4,27.61 -1.07,56.41 -13.94,80.85 -17,32.28 -53.66,51.43 -61.52,87.07 -7.93,-1.47 -10.06,-0.73 -12.19,0 -2.12,0.73 -4.25,1.46 -12.18,0 V 806.84"
         style="fill:#92dad1;fill-opacity:1;fill-rule:nonzero;stroke:none"
         id="path158" />
      <path
         d="m 3820.21,1256.16 c -16.57,0.83 -34.89,0.59 -51.43,-0.72 0,4.9 0,12.55 0,17.46 17.73,0.92 53.33,1.46 52.38,1.78 -0.29,-5.05 -1.94,-13.56 -0.95,-18.52"
         style="fill:#2c625c;fill-opacity:1;fill-rule:nonzero;stroke:none"
         id="path160" />
      <path
         d="m 3718.03,1108.54 c -7.65,2.3 -15.62,-0.36 -20.18,-11.85 -8.57,-21.59 21.49,-49.21 37.17,-25.03 8.81,13.56 -3.58,32.85 -16.99,36.88"
         style="fill:#92dad1;fill-opacity:1;fill-rule:nonzero;stroke:none"
         id="path162" />
      <path
         d="m 3718.03,1067.73 c -7.65,2.3 -15.62,-0.36 -20.18,-11.85 -8.57,-21.59 21.49,-49.21 37.17,-25.03 8.81,13.56 -3.58,32.85 -16.99,36.88"
         style="fill:#92dad1;fill-opacity:1;fill-rule:nonzero;stroke:none"
         id="path164" />
      <path
         d="m 3718.03,1040.53 c -7.65,2.29 -15.62,-0.36 -20.18,-11.86 -8.57,-21.59 21.49,-49.209 37.17,-25.03 8.81,13.57 -3.58,32.86 -16.99,36.89"
         style="fill:#92dad1;fill-opacity:1;fill-rule:nonzero;stroke:none"
         id="path166" />
      <path
         d="m 3718.03,999.719 c -7.65,2.291 -15.62,-0.36 -20.18,-11.86 -8.57,-21.589 21.49,-49.211 37.17,-25.031 8.81,13.57 -3.58,32.863 -16.99,36.891"
         style="fill:#92dad1;fill-opacity:1;fill-rule:nonzero;stroke:none"
         id="path168" />
      <path
         d="m 3874.35,1108.54 c 7.63,2.3 15.61,-0.36 20.17,-11.85 8.57,-21.59 -21.48,-49.21 -37.17,-25.03 -8.81,13.56 3.59,32.85 17,36.88"
         style="fill:#92dad1;fill-opacity:1;fill-rule:nonzero;stroke:none"
         id="path170" />
      <path
         d="m 3874.35,1067.73 c 7.63,2.3 15.61,-0.36 20.17,-11.85 8.57,-21.59 -21.48,-49.21 -37.17,-25.03 -8.81,13.56 3.59,32.85 17,36.88"
         style="fill:#92dad1;fill-opacity:1;fill-rule:nonzero;stroke:none"
         id="path172" />
      <path
         d="m 3874.35,1040.53 c 7.63,2.29 15.61,-0.36 20.17,-11.86 8.57,-21.59 -21.48,-49.209 -37.17,-25.03 -8.81,13.57 3.59,32.86 17,36.89"
         style="fill:#92dad1;fill-opacity:1;fill-rule:nonzero;stroke:none"
         id="path174" />
      <path
         d="m 3874.35,999.719 c 7.63,2.291 15.61,-0.36 20.17,-11.86 8.57,-21.589 -21.48,-49.211 -37.17,-25.031 -8.81,13.57 3.59,32.863 17,36.891"
         style="fill:#92dad1;fill-opacity:1;fill-rule:nonzero;stroke:none"
         id="path176" />
      <path
         d="m 3887.65,959.191 c -0.01,0.43 -0.01,0.868 -0.02,1.309 0.42,0.422 0.83,0.871 1.23,1.32 -0.04,-0.531 -0.18,-1.07 -0.44,-1.582 -0.21,-0.398 -0.47,-0.75 -0.77,-1.047"
         style="fill:#87cdb5;fill-opacity:1;fill-rule:nonzero;stroke:none"
         id="path178" />
      <path
         d="m 3884.77,957.98 c 1,0.758 1.95,1.61 2.86,2.52 0.01,-0.441 0.01,-0.879 0.02,-1.309 -0.77,-0.769 -1.81,-1.199 -2.88,-1.211"
         style="fill:#60bdac;fill-opacity:1;fill-rule:nonzero;stroke:none"
         id="path180" />
      <path
         d="m 3703.79,960.449 c -1.51,0.633 -2.57,2.133 -2.56,3.871 0,0.141 0.01,0.27 0.02,0.41 0.78,-1.148 1.64,-2.242 2.56,-3.25 0,-0.031 0,-0.058 0,-0.089 -0.01,-0.321 -0.01,-0.629 -0.02,-0.942"
         style="fill:#87cdb5;fill-opacity:1;fill-rule:nonzero;stroke:none"
         id="path182" />
      <path
         d="m 3785.84,959.371 c -19.33,0.188 -38.09,0.367 -52.63,0.508 -0.13,0 -0.26,0 -0.39,0 0.76,0.883 1.49,1.871 2.2,2.949 1.1,1.703 1.87,3.492 2.35,5.332 13.86,-0.129 30.93,-0.301 48.47,-0.469 v -8.32 m -80.74,0.77 c -0.46,0.031 -0.9,0.14 -1.31,0.308 0.01,0.313 0.01,0.621 0.02,0.942 0,0.031 0,0.058 0,0.089 0.42,-0.46 0.85,-0.91 1.29,-1.339"
         style="fill:#60bdac;fill-opacity:1;fill-rule:nonzero;stroke:none"
         id="path184" />
      <path
         d="m 3860.83,958.5 c -9.38,0.141 -20.91,0.281 -33.41,0.422 -13.24,0.148 -27.56,0.297 -41.58,0.449 v 8.32 c 24.78,-0.261 50.52,-0.543 69.54,-0.793 0.47,-1.398 1.12,-2.757 1.97,-4.07 1.1,-1.687 2.26,-3.117 3.48,-4.328"
         style="fill:#60bdac;fill-opacity:1;fill-rule:nonzero;stroke:none"
         id="path186" />
      <path
         d="m 3732.82,959.879 c -16.5,0.152 -27.44,0.25 -27.47,0.25 -0.08,0 -0.16,0 -0.25,0.012 -0.44,0.429 -0.87,0.879 -1.29,1.339 -0.92,1.008 -1.78,2.102 -2.56,3.25 0.22,2.09 1.99,3.719 4.14,3.719 0.01,0 0.02,0 0.04,0 0,0 12.97,-0.117 31.94,-0.289 -0.48,-1.84 -1.25,-3.629 -2.35,-5.332 -0.71,-1.078 -1.44,-2.066 -2.2,-2.949"
         style="fill:#60bdac;fill-opacity:1;fill-rule:nonzero;stroke:none"
         id="path188" />
      <path
         d="m 3884.71,957.98 c -0.22,0 -0.45,0.02 -0.67,0.051 l -0.78,0.039 c -0.76,0.032 -1.89,0.071 -3.35,0.102 -2.9,0.066 -7.08,0.148 -12.24,0.226 -2.12,0.032 -4.41,0.071 -6.84,0.102 -1.22,1.211 -2.38,2.641 -3.48,4.328 -0.85,1.313 -1.5,2.672 -1.97,4.07 7.67,-0.109 14.24,-0.207 19.22,-0.296 5.49,-0.102 8.88,-0.18 10.18,-0.282 l 0.88,-0.129 0.95,-0.351 c 1.54,-0.789 2.38,-2.399 2.25,-4.02 -0.4,-0.449 -0.81,-0.898 -1.23,-1.32 -0.91,-0.91 -1.86,-1.762 -2.86,-2.52 -0.02,0 -0.04,0 -0.06,0"
         style="fill:#60bdac;fill-opacity:1;fill-rule:nonzero;stroke:none"
         id="path190" />
      <path
         d="m 3702.03,995.102 c -0.51,0.699 -0.81,1.558 -0.8,2.5 0.02,1.929 1.35,3.538 3.15,3.988 -0.02,-1.41 -0.04,-2.828 -0.06,-4.25 -0.8,-0.641 -1.56,-1.379 -2.29,-2.238"
         style="fill:#87cdb5;fill-opacity:1;fill-rule:nonzero;stroke:none"
         id="path192" />
      <path
         d="m 3785.84,992.641 c -19.33,0.187 -38.09,0.371 -52.63,0.507 -1.58,0.012 -3.11,0.032 -4.59,0.043 -0.84,0.821 -1.73,1.598 -2.64,2.301 2.64,1.129 5.18,3.067 7.48,5.968 14.49,-0.13 33.15,-0.31 52.38,-0.5 v -8.319 m -81.52,4.699 c 0.02,1.422 0.04,2.84 0.06,4.25 0.02,0.01 0.04,0.02 0.06,0.02 0.86,-0.89 1.77,-1.712 2.71,-2.469 -0.98,-0.461 -1.92,-1.059 -2.83,-1.801"
         style="fill:#60bdac;fill-opacity:1;fill-rule:nonzero;stroke:none"
         id="path194" />
      <path
         d="m 3862.36,991.75 c -9.65,0.141 -21.75,0.289 -34.94,0.441 -13.24,0.149 -27.56,0.309 -41.58,0.45 v 8.319 c 26.89,-0.28 54.9,-0.58 74.23,-0.86 1.98,-2.159 4.12,-3.659 6.32,-4.608 -1.42,-1.101 -2.78,-2.363 -4.03,-3.742"
         style="fill:#60bdac;fill-opacity:1;fill-rule:nonzero;stroke:none"
         id="path196" />
      <path
         d="m 3725.98,995.492 c -2.49,1.93 -5.2,3.399 -7.95,4.227 -1.64,0.491 -3.29,0.751 -4.91,0.751 -2.05,0 -4.06,-0.42 -5.97,-1.329 -0.94,0.757 -1.85,1.579 -2.71,2.469 0.31,0.07 0.62,0.11 0.95,0.11 0.01,0 0.02,0 0.04,0 0,0 11.21,-0.1 28.03,-0.26 -2.3,-2.901 -4.84,-4.839 -7.48,-5.968"
         style="fill:#60bdac;fill-opacity:1;fill-rule:nonzero;stroke:none"
         id="path198" />
      <path
         d="m 3728.62,993.191 c -14.13,0.129 -23.24,0.207 -23.27,0.207 -1.36,0.012 -2.57,0.68 -3.32,1.704 0.73,0.859 1.49,1.597 2.29,2.238 0.91,0.742 1.85,1.34 2.83,1.801 1.91,0.909 3.92,1.329 5.97,1.329 1.62,0 3.27,-0.26 4.91,-0.751 2.75,-0.828 5.46,-2.297 7.95,-4.227 0.91,-0.703 1.8,-1.48 2.64,-2.301"
         style="fill:#60bdac;fill-opacity:1;fill-rule:nonzero;stroke:none"
         id="path200" />
      <path
         d="m 3888.61,996.871 c -0.49,0.438 -1,0.828 -1.51,1.188 0,0.25 -0.01,0.511 -0.01,0.773 0.71,-0.5 1.23,-1.184 1.52,-1.961"
         style="fill:#87cdb5;fill-opacity:1;fill-rule:nonzero;stroke:none"
         id="path202" />
      <path
         d="m 3887.1,998.059 c -0.61,0.421 -1.24,0.781 -1.88,1.082 0.13,0.109 0.27,0.218 0.4,0.328 l 0.04,-0.008 0.95,-0.352 c 0.17,-0.078 0.33,-0.179 0.48,-0.277 0,-0.262 0.01,-0.523 0.01,-0.773"
         style="fill:#60bdac;fill-opacity:1;fill-rule:nonzero;stroke:none"
         id="path204" />
      <path
         d="m 3866.39,995.492 c -2.2,0.949 -4.34,2.449 -6.32,4.608 5.67,-0.08 10.6,-0.151 14.53,-0.229 0.09,0 0.19,0 0.28,0 -0.18,-0.051 -0.36,-0.101 -0.53,-0.152 -2.76,-0.828 -5.46,-2.297 -7.96,-4.227 m 18.83,3.649 c -0.39,0.191 -0.78,0.347 -1.17,0.5 0.29,-0.02 0.53,-0.032 0.73,-0.051 l 0.84,-0.121 c -0.13,-0.11 -0.27,-0.219 -0.4,-0.328"
         style="fill:#60bdac;fill-opacity:1;fill-rule:nonzero;stroke:none"
         id="path206" />
      <path
         d="m 3884.71,991.25 c -0.22,0 -0.45,0.02 -0.67,0.059 l -0.78,0.031 c -0.76,0.031 -1.89,0.07 -3.35,0.101 -2.9,0.071 -7.08,0.149 -12.24,0.231 -1.67,0.027 -3.45,0.047 -5.31,0.078 1.25,1.379 2.61,2.641 4.03,3.742 2.5,1.93 5.2,3.399 7.96,4.227 0.17,0.051 0.35,0.101 0.53,0.152 4.5,-0.09 7.56,-0.16 9.17,-0.23 0.39,-0.153 0.78,-0.309 1.17,-0.5 0.64,-0.301 1.27,-0.661 1.88,-1.082 0.51,-0.36 1.02,-0.75 1.51,-1.188 0.4,-1.051 0.36,-2.269 -0.19,-3.359 -0.74,-1.43 -2.2,-2.262 -3.71,-2.262"
         style="fill:#60bdac;fill-opacity:1;fill-rule:nonzero;stroke:none"
         id="path208" />
      <path
         d="m 3785.84,1034.23 c -17.73,0.18 -34.97,0.35 -48.92,0.48 0.95,2.68 1.23,5.49 0.97,8.31 13.76,-0.13 30.63,-0.29 47.95,-0.47 v -8.32"
         style="fill:#60bdac;fill-opacity:1;fill-rule:nonzero;stroke:none"
         id="path210" />
      <path
         d="m 3855.95,1033.43 c -8.38,0.12 -18.12,0.24 -28.53,0.35 -13.24,0.16 -27.56,0.31 -41.58,0.45 v 8.32 c 24.36,-0.25 49.65,-0.52 68.57,-0.78 -0.1,-2.84 0.37,-5.67 1.54,-8.34"
         style="fill:#60bdac;fill-opacity:1;fill-rule:nonzero;stroke:none"
         id="path212" />
      <path
         d="m 3736.92,1034.71 c -1.26,0.01 -2.5,0.02 -3.71,0.03 -1.88,0.02 -3.69,0.03 -5.43,0.05 -2.96,2.68 -6.32,4.71 -9.75,5.74 -1.64,0.49 -3.29,0.75 -4.92,0.75 -3.86,0 -7.61,-1.49 -10.74,-4.99 -0.72,0.76 -1.15,1.78 -1.14,2.9 0.02,2.28 1.88,4.12 4.16,4.12 0.01,0 0.02,0 0.04,0 0,0 13.21,-0.12 32.46,-0.29 0.26,-2.82 -0.02,-5.63 -0.97,-8.31"
         style="fill:#60bdac;fill-opacity:1;fill-rule:nonzero;stroke:none"
         id="path214" />
      <path
         d="m 3727.78,1034.79 c -13.65,0.13 -22.4,0.2 -22.43,0.2 -1.17,0.01 -2.23,0.51 -2.98,1.3 3.13,3.5 6.88,4.99 10.74,4.99 1.63,0 3.28,-0.26 4.92,-0.75 3.43,-1.03 6.79,-3.06 9.75,-5.74"
         style="fill:#60bdac;fill-opacity:1;fill-rule:nonzero;stroke:none"
         id="path216" />
      <path
         d="m 3863.08,1033.33 c -2.24,0.04 -4.62,0.07 -7.13,0.1 -1.17,2.67 -1.64,5.5 -1.54,8.34 8.08,-0.11 15,-0.21 20.19,-0.31 5.49,-0.1 8.88,-0.18 10.18,-0.28 l 0.88,-0.12 0.95,-0.36 c 1.29,-0.66 2.09,-1.9 2.24,-3.23 -2.88,2.66 -6.19,3.81 -9.6,3.81 -1.62,0 -3.27,-0.26 -4.9,-0.75 -4.03,-1.21 -7.97,-3.8 -11.27,-7.2"
         style="fill:#60bdac;fill-opacity:1;fill-rule:nonzero;stroke:none"
         id="path218" />
      <path
         d="m 3884.71,1032.84 c -0.22,0 -0.44,0.02 -0.66,0.06 l -0.79,0.04 c -0.76,0.03 -1.89,0.06 -3.35,0.09 -2.9,0.07 -7.08,0.15 -12.24,0.23 -1.45,0.03 -2.99,0.05 -4.59,0.07 3.3,3.4 7.24,5.99 11.27,7.2 1.63,0.49 3.28,0.75 4.9,0.75 3.41,0 6.72,-1.15 9.6,-3.81 0.09,-0.79 -0.04,-1.61 -0.43,-2.37 -0.74,-1.43 -2.2,-2.26 -3.71,-2.26"
         style="fill:#60bdac;fill-opacity:1;fill-rule:nonzero;stroke:none"
         id="path220" />
      <path
         d="m 3886.45,1066.49 c -0.11,0.07 -0.21,0.13 -0.32,0.19 -0.01,0.41 -0.01,0.82 -0.02,1.22 0.97,0.84 1.89,1.76 2.75,2.74 0.07,-0.76 -0.07,-1.56 -0.45,-2.29 -0.45,-0.85 -1.15,-1.49 -1.96,-1.86"
         style="fill:#87cdb5;fill-opacity:1;fill-rule:nonzero;stroke:none"
         id="path222" />
      <path
         d="m 3886.13,1066.68 c -0.3,0.18 -0.6,0.33 -0.91,0.48 0.3,0.24 0.6,0.49 0.89,0.74 0.01,-0.4 0.01,-0.81 0.02,-1.22"
         style="fill:#60bdac;fill-opacity:1;fill-rule:nonzero;stroke:none"
         id="path224" />
      <path
         d="m 3705.32,1068.26 c -2.28,0.04 -4.11,1.91 -4.09,4.2 0,0.33 0.05,0.65 0.12,0.96 1.17,-1.71 2.51,-3.28 3.98,-4.67 0,-0.16 -0.01,-0.32 -0.01,-0.49"
         style="fill:#87cdb5;fill-opacity:1;fill-rule:nonzero;stroke:none"
         id="path226" />
      <path
         d="m 3785.84,1067.51 c -19.33,0.19 -38.09,0.37 -52.63,0.5 -0.34,0.01 -0.67,0.01 -1,0.01 0.98,1.05 1.92,2.26 2.81,3.64 0.96,1.49 1.67,3.04 2.16,4.63 13.89,-0.12 31.03,-0.29 48.66,-0.47 v -8.31 m -79.98,0.75 c -0.33,0 -0.5,0 -0.51,0 v 0 c -0.01,0 -0.02,0 -0.03,0 0,0.17 0.01,0.33 0.01,0.49 0.17,-0.17 0.35,-0.33 0.53,-0.49"
         style="fill:#60bdac;fill-opacity:1;fill-rule:nonzero;stroke:none"
         id="path228" />
      <path
         d="m 3861.58,1066.63 c -9.52,0.14 -21.33,0.28 -34.16,0.43 -13.24,0.15 -27.56,0.3 -41.58,0.45 v 8.31 c 24.89,-0.25 50.75,-0.53 69.79,-0.79 0.44,-1.15 1.01,-2.28 1.72,-3.37 1.32,-2.03 2.74,-3.7 4.23,-5.03"
         style="fill:#60bdac;fill-opacity:1;fill-rule:nonzero;stroke:none"
         id="path230" />
      <path
         d="m 3732.21,1068.02 c -6.21,0.06 -11.61,0.11 -15.91,0.15 -1.06,0.21 -2.13,0.32 -3.19,0.32 -0.93,0 -1.86,-0.09 -2.78,-0.27 -2.21,0.02 -3.74,0.03 -4.47,0.04 -0.18,0.16 -0.36,0.32 -0.53,0.49 -1.47,1.39 -2.81,2.96 -3.98,4.67 0.45,1.82 2.09,3.16 4.04,3.16 0.01,0 0.02,0 0.04,0 0,0 12.89,-0.11 31.75,-0.29 -0.49,-1.59 -1.2,-3.14 -2.16,-4.63 -0.89,-1.38 -1.83,-2.59 -2.81,-3.64"
         style="fill:#60bdac;fill-opacity:1;fill-rule:nonzero;stroke:none"
         id="path232" />
      <path
         d="m 3716.3,1068.17 c -2.33,0.02 -4.34,0.03 -5.97,0.05 0.92,0.18 1.85,0.27 2.78,0.27 1.06,0 2.13,-0.11 3.19,-0.32"
         style="fill:#60bdac;fill-opacity:1;fill-rule:nonzero;stroke:none"
         id="path234" />
      <path
         d="m 3871.15,1066.48 c -1.1,0.02 -2.26,0.04 -3.48,0.06 -1.9,0.03 -3.94,0.06 -6.09,0.09 -1.49,1.33 -2.91,3 -4.23,5.03 -0.71,1.09 -1.28,2.22 -1.72,3.37 7.56,-0.1 14.05,-0.2 18.97,-0.29 5.49,-0.11 8.88,-0.18 10.19,-0.28 l 0.88,-0.14 0.97,-0.36 c 1.3,-0.68 2.1,-1.95 2.22,-3.32 -0.86,-0.98 -1.78,-1.9 -2.75,-2.74 -0.29,-0.25 -0.59,-0.5 -0.89,-0.74 -1.91,0.91 -3.92,1.33 -5.96,1.33 -1.63,0 -3.28,-0.26 -4.91,-0.76 -1.08,-0.32 -2.15,-0.74 -3.2,-1.25"
         style="fill:#60bdac;fill-opacity:1;fill-rule:nonzero;stroke:none"
         id="path236" />
      <path
         d="m 3884.71,1066.11 c -0.22,0 -0.45,0.02 -0.67,0.06 l -0.79,0.04 c -0.75,0.03 -1.88,0.06 -3.34,0.1 -2.22,0.05 -5.18,0.11 -8.76,0.17 1.05,0.51 2.12,0.93 3.2,1.25 1.63,0.5 3.28,0.76 4.91,0.76 2.04,0 4.05,-0.42 5.96,-1.33 0.31,-0.15 0.61,-0.3 0.91,-0.48 0.11,-0.06 0.21,-0.12 0.32,-0.19 -0.54,-0.25 -1.14,-0.38 -1.74,-0.38"
         style="fill:#60bdac;fill-opacity:1;fill-rule:nonzero;stroke:none"
         id="path238" />
      <path
         d="m 3701.78,1103.63 c -0.35,0.62 -0.56,1.34 -0.55,2.11 0.02,2.28 1.88,4.12 4.16,4.12 0.01,0 0.02,0 0.04,0 0,0 0.18,0 0.52,0 -0.02,-0.86 -0.04,-1.72 -0.06,-2.57 -1.45,-0.89 -2.84,-2.1 -4.11,-3.66"
         style="fill:#87cdb5;fill-opacity:1;fill-rule:nonzero;stroke:none"
         id="path240" />
      <path
         d="m 3785.84,1100.78 c -19.34,0.2 -38.09,0.38 -52.63,0.51 -1.34,0.01 -2.64,0.03 -3.9,0.04 -3.3,3.4 -7.25,6 -11.28,7.21 -1.64,0.5 -3.29,0.76 -4.92,0.76 -2.5,0 -4.95,-0.62 -7.22,-2.01 0.02,0.85 0.04,1.71 0.06,2.57 4.75,-0.04 41.15,-0.36 79.89,-0.76 v -8.32"
         style="fill:#60bdac;fill-opacity:1;fill-rule:nonzero;stroke:none"
         id="path242" />
      <path
         d="m 3861.76,1099.9 c -9.55,0.14 -21.42,0.29 -34.34,0.43 -13.24,0.16 -27.56,0.31 -41.58,0.45 v 8.32 c 33.66,-0.34 69.09,-0.74 87.04,-1.06 -4.06,-1.56 -7.96,-4.47 -11.12,-8.14"
         style="fill:#60bdac;fill-opacity:1;fill-rule:nonzero;stroke:none"
         id="path244" />
      <path
         d="m 3729.31,1101.33 c -14.53,0.13 -23.93,0.21 -23.96,0.21 -1.52,0.02 -2.85,0.85 -3.57,2.09 1.27,1.56 2.66,2.77 4.11,3.66 2.27,1.39 4.72,2.01 7.22,2.01 1.63,0 3.28,-0.26 4.92,-0.76 4.03,-1.21 7.98,-3.81 11.28,-7.21"
         style="fill:#60bdac;fill-opacity:1;fill-rule:nonzero;stroke:none"
         id="path246" />
      <path
         d="m 3887.68,1106.47 c -0.4,0.3 -0.82,0.58 -1.23,0.84 l 0.19,-0.08 c 0.39,-0.2 0.74,-0.46 1.04,-0.76"
         style="fill:#87cdb5;fill-opacity:1;fill-rule:nonzero;stroke:none"
         id="path248" />
      <path
         d="m 3884.71,1099.39 c -0.22,0 -0.45,0.01 -0.67,0.05 l -0.79,0.04 c -0.75,0.03 -1.88,0.06 -3.34,0.1 -2.9,0.07 -7.09,0.15 -12.24,0.23 -1.85,0.03 -3.83,0.06 -5.91,0.09 3.16,3.67 7.06,6.58 11.12,8.14 0.6,-0.01 1.17,-0.02 1.72,-0.03 5.49,-0.1 8.88,-0.18 10.19,-0.28 l 0.88,-0.13 0.78,-0.29 c 0.41,-0.26 0.83,-0.54 1.23,-0.84 1.23,-1.25 1.58,-3.2 0.73,-4.85 -0.75,-1.42 -2.2,-2.23 -3.7,-2.23"
         style="fill:#60bdac;fill-opacity:1;fill-rule:nonzero;stroke:none"
         id="path250" />
      <path
         d="m 3820.73,1198.75 c 14.23,-11.17 26.62,-24.68 36.51,-39.82 1.82,-2.79 5.57,-3.58 8.36,-1.75 2.79,1.82 3.58,5.57 1.75,8.36 -10.62,16.25 -23.89,30.73 -39.16,42.72 -2.62,2.06 -6.42,1.6 -8.48,-1.02 -2.06,-2.63 -1.6,-6.42 1.02,-8.49"
         style="fill:#e4f4d9;fill-opacity:1;fill-rule:nonzero;stroke:none"
         id="path252" />
      <path
         d="m 3961.02,1367.21 c 31.72,86.85 63.45,173.72 95.17,260.57 h 282.9 c 3.67,-0.45 90.56,-173.62 123.18,-256.32 l -501.25,-4.25"
         style="fill:#9ed760;fill-opacity:1;fill-rule:nonzero;stroke:none"
         id="path254" />
      <path
         d="m 4089.94,1627.78 h -0.84 c -0.01,0.52 0.19,0.69 0.41,0.69 0.22,0 0.48,-0.17 0.58,-0.35 0.08,-0.14 0.06,-0.29 -0.15,-0.34"
         style="fill:#7cb89f;fill-opacity:1;fill-rule:nonzero;stroke:none"
         id="path256" />
      <path
         d="m 4151.23,1533.6 c -10.26,0 -20.33,1.01 -29.58,4.63 -10.18,3.99 -19.31,11.2 -24.31,20.92 -2.34,4.54 -3.73,9.5 -5.1,14.42 -4.82,17.19 -2.73,36.42 -3.14,54.21 v 0 h 0.84 v 0 h 222.23 c 3.28,-16.69 6.56,-38.34 3.42,-55.05 -3.16,-16.71 -14.31,-33.08 -30.82,-37.17 -5.23,-1.3 -10.68,-1.32 -16.06,-1.34 -1.05,0 -2.11,-0.01 -3.16,-0.01 -24.87,0 -49.74,0.86 -74.61,1.02 -0.3,0.01 -0.6,0.01 -0.9,0.01 -6.2,0 -12.64,-0.41 -19.16,-0.82 -6.52,-0.41 -13.12,-0.82 -19.65,-0.82"
         style="fill:#63aa70;fill-opacity:1;fill-rule:nonzero;stroke:none"
         id="path258" />
      <path
         d="m 3958.34,1372.25 c 24.17,-139.81 48.35,-283.26 72.52,-424.41 3.52,-20.59 7.05,-41.141 10.58,-61.629 3.39,-19.723 22.24,-34.359 44.85,-35.129 87.86,-2.961 178.15,7.199 265.99,4.168 21.1,-0.719 39.21,13.09 41.71,31.582 2.02,14.918 4.12,30.309 6.28,46.027 22.93,166.101 53.05,368.771 59.05,439.391"
         style="fill:#9ed760;fill-opacity:1;fill-rule:nonzero;stroke:none"
         id="path260" />
      <path
         d="m 4034.04,927.719 c 2.39,-13.821 4.78,-27.629 7.17,-41.41 3.42,-19.727 22.39,-34.368 45.16,-35.129 88.46,-2.961 179.38,7.191 267.82,4.172 21.25,-0.723 39.49,13.089 42,31.57 2.02,14.93 4.14,30.316 6.33,46.039"
         style="fill:#468e76;fill-opacity:1;fill-rule:nonzero;stroke:none"
         id="path262" />
      <path
         d="m 4475.17,1350.06 c -116.96,-1.57 -238.47,-6.83 -357.7,-10.25 -51.71,-1.47 -107.33,1.11 -159,-0.19 -43.5,-1.09 -43.5,38.74 -9.86,46.05 24.02,5.23 411.21,11.32 512.69,12.61 41.23,0 30.99,-47.99 13.87,-48.22"
         style="fill:#468e76;fill-opacity:1;fill-rule:nonzero;stroke:none"
         id="path264" />
      <path
         d="m 4079.7,884.371 c -25.59,-15.422 -25.85,-59.012 1.17,-73.351 34.87,-18.52 70.47,28.722 51.93,59.992 -10.34,17.457 -35.72,23.84 -53.1,13.359"
         style="fill:#2c625c;fill-opacity:1;fill-rule:nonzero;stroke:none"
         id="path266" />
      <path
         d="m 4091.14,863.129 c -10.58,-6.367 -10.69,-24.418 0.48,-30.348 14.43,-7.66 29.16,11.891 21.5,24.828 -4.28,7.223 -14.78,9.86 -21.98,5.52"
         style="fill:#48ae9c;fill-opacity:1;fill-rule:nonzero;stroke:none"
         id="path268" />
      <path
         d="m 4318.71,884.371 c -25.58,-15.422 -25.85,-59.012 1.17,-73.351 34.88,-18.52 70.47,28.722 51.95,59.992 -10.36,17.457 -35.73,23.84 -53.12,13.359"
         style="fill:#2c625c;fill-opacity:1;fill-rule:nonzero;stroke:none"
         id="path270" />
      <path
         d="m 4330.16,863.129 c -10.59,-6.367 -10.7,-24.418 0.48,-30.348 14.43,-7.66 29.16,11.891 21.49,24.828 -4.28,7.223 -14.78,9.86 -21.97,5.52"
         style="fill:#48ae9c;fill-opacity:1;fill-rule:nonzero;stroke:none"
         id="path272" />
      <path
         d="m 4286.87,1143.73 c 0.01,-0.01 2.42,-3.78 6.06,-9.54 5.46,-8.64 13.66,-21.71 20.44,-32.94 3.38,-5.6 6.42,-10.76 8.51,-14.55 1.05,-1.89 1.86,-3.45 2.3,-4.38 l 0.25,-0.53 0.06,-0.16 4.48,1.74 -4.63,-1.27 0.15,-0.47 4.48,1.74 -4.63,-1.27 9.76,2.68 H 4324 c 0.03,-1.7 0.26,-2.27 0.34,-2.68 l 9.76,2.68 h -10.1 11.4 l -11.03,2.89 c -0.32,-1.24 -0.37,-2.17 -0.37,-2.89 h 11.4 l -11.03,2.89 11.29,-2.96 -9,7.43 c -1.34,-1.64 -1.97,-3.25 -2.29,-4.47 l 11.29,-2.96 -9,7.43 9.16,-7.56 -8.98,7.77 8.82,-7.63 -4.69,10.68 c -0.74,-0.42 -1.89,-0.65 -4.13,-3.05 l 8.82,-7.63 -4.69,10.68 4.02,-9.17 -2.1,9.81 c -0.24,-0.08 -0.52,-0.06 -1.92,-0.64 l 4.02,-9.17 -2.1,9.81 0.92,-4.27 -0.76,4.3 -0.16,-0.03 0.92,-4.27 -0.76,4.3 c -0.01,-0.01 -1.34,-0.18 -3.04,-0.32 -6.16,-0.55 -18.45,-1.25 -30.04,-1.8 -11.57,-0.55 -22.82,-0.95 -26.49,-0.95 l -0.56,0.01 h -0.17 l -0.29,-7.1 0.94,7.04 -0.65,0.06 -0.29,-7.1 0.94,7.04 -1.49,-11.13 3.4,10.7 c -1.2,0.36 -1.58,0.37 -1.91,0.43 l -1.49,-11.13 3.4,10.7 -3.56,-11.22 6.66,9.7 c -1.63,1.08 -2.47,1.29 -3.1,1.52 l -3.56,-11.22 6.66,9.7 -6.71,-9.76 9.7,6.8 c -1.13,1.58 -2.19,2.4 -2.99,2.96 l -6.71,-9.76 9.7,6.8 -9.71,-6.81 h 11.86 c 0.03,2.73 -1.04,5.29 -2.15,6.81 l -9.71,-6.81 h 11.86 -11.86 l 9.75,-6.76 c 1.24,1.75 2.13,4.2 2.11,6.76 h -11.86 l 9.75,-6.76 -9.74,6.75 5.79,-10.34 c 1.24,0.7 2.71,1.81 3.95,3.59 l -9.74,6.75 5.79,-10.34 c 5.72,3.2 7.76,10.44 4.56,16.16 -3.2,5.72 -10.44,7.76 -16.16,4.56 -1.25,-0.7 -2.72,-1.82 -3.97,-3.6 -1.24,-1.76 -2.13,-4.22 -2.11,-6.77 -0.03,-2.42 0.81,-4.76 1.79,-6.28 1.98,-2.98 3.68,-3.71 4.67,-4.3 1.91,-0.92 2.56,-0.94 3.14,-1.1 0.93,-0.18 1.29,-0.19 1.66,-0.23 0.98,-0.06 1.56,-0.06 2.41,-0.06 5.77,0 20.94,0.61 35.31,1.35 7.15,0.37 14,0.77 19.23,1.16 2.62,0.19 4.82,0.37 6.58,0.56 l 2.53,0.34 1.69,0.38 1.7,0.61 c 0.82,0.45 2.01,0.72 4.28,3.15 l 0.18,0.22 c 1.37,1.67 2.03,3.34 2.37,4.63 0.33,1.3 0.39,2.31 0.4,3.12 -0.05,2.27 -0.4,3.15 -0.62,4.01 -0.48,1.53 -0.92,2.48 -1.44,3.61 -1.9,3.98 -5.04,9.45 -8.97,16.09 -11.72,19.71 -29.81,47.98 -29.84,48.04 -3.54,5.52 -10.88,7.13 -16.4,3.6 -5.53,-3.54 -7.14,-10.88 -3.61,-16.4"
         style="fill:#1b3c37;fill-opacity:1;fill-rule:nonzero;stroke:none"
         id="path274" />
      <path
         d="m 4266.96,1110.29 -5.78,10.37 c -6.62,-3.71 -11.9,-8.19 -16.69,-12.14 -4.77,-3.98 -9.04,-7.44 -13.08,-9.68 -3.33,-1.85 -5.57,-5.22 -6.01,-9 -0.44,-3.79 0.98,-7.57 3.8,-10.14 10.37,-9.45 20.74,-18.91 31.12,-28.35 3.47,-3.16 8.5,-3.98 12.79,-2.08 4.29,1.89 7.07,6.17 7.07,10.86 -0.01,19.22 -1.36,32.25 -1.34,50.16 0,4.21 -2.24,8.11 -5.87,10.24 -3.62,2.13 -8.12,2.18 -11.79,0.13 l 5.78,-10.37 h -11.87 c 0.01,-19.23 1.36,-32.26 1.35,-50.16 h 11.87 l 7.99,8.78 c -10.36,9.44 -20.73,18.89 -31.1,28.34 l -8,-8.77 5.78,-10.37 c 6.62,3.71 11.9,8.19 16.69,12.14 4.77,3.98 9.04,7.44 13.08,9.68 l -5.79,10.36 h -11.87 11.87"
         style="fill:#1b3c37;fill-opacity:1;fill-rule:nonzero;stroke:none"
         id="path276" />
      <path
         d="m 4149.45,1132.18 0.41,1.22 c 0.13,0.62 0.4,1.29 0.45,3.28 -0.06,1.25 -0.01,3.25 -1.8,6.3 -0.9,1.48 -2.46,3.11 -4.41,4.16 -1.94,1.07 -4.06,1.47 -5.69,1.45 -3.19,-0.08 -4.65,-0.94 -5.65,-1.42 -1.87,-1.06 -2.27,-1.61 -2.75,-2.02 l -1.35,-1.51 c -1.01,-1.3 -1.85,-2.57 -3.12,-4.47 -4.25,-6.45 -11.76,-18.55 -18.37,-29.73 -3.29,-5.58 -6.34,-10.89 -8.66,-15.21 -1.16,-2.17 -2.13,-4.07 -2.93,-5.81 -0.4,-0.88 -0.75,-1.7 -1.1,-2.69 l -0.53,-1.75 c -0.16,-0.74 -0.38,-1.6 -0.4,-3.22 0.01,-0.78 0.06,-1.77 0.4,-3.13 0.35,-1.33 1.06,-3.14 2.58,-4.89 l -0.02,0.02 c 1.75,-1.95 2.99,-2.49 3.83,-2.94 1.62,-0.75 2.27,-0.83 2.85,-0.98 1.02,-0.22 1.53,-0.26 2.1,-0.32 1.83,-0.17 3.83,-0.23 6.59,-0.28 2.72,-0.05 6.02,-0.07 9.72,-0.07 10.57,0 24.36,0.17 36.02,0.41 5.83,0.12 11.12,0.26 15.22,0.4 2.06,0.07 3.81,0.14 5.23,0.21 1.49,0.08 2.33,0.11 3.72,0.29 6.49,0.92 11.01,6.93 10.09,13.42 -0.91,6.49 -6.92,11.01 -13.41,10.1 l 0.72,-5.16 -0.58,5.18 -0.14,-0.02 0.72,-5.16 -0.58,5.18 -0.6,-0.05 c -3.12,-0.21 -12.73,-0.49 -23.58,-0.7 -10.9,-0.21 -23.32,-0.36 -32.83,-0.36 -4.53,0 -8.42,0.04 -11.06,0.11 -1.31,0.04 -2.33,0.09 -2.78,0.12 l -0.19,0.02 -0.68,-6.36 1.34,6.24 -0.66,0.12 -0.68,-6.36 1.34,6.24 -2.25,-10.46 3.75,10.02 -1.5,0.44 -2.25,-10.46 3.75,10.02 -4.03,-10.79 5.71,10 -1.68,0.79 -4.03,-10.79 5.71,10 -5.83,-10.21 8.89,7.69 c -1.29,1.47 -2.32,2.08 -3.06,2.52 l -5.83,-10.21 8.89,7.69 -0.02,0.03 -8.79,-7.64 11.27,2.93 c -0.32,1.26 -1,3 -2.48,4.71 l -8.79,-7.64 11.27,2.93 -10.97,-2.85 h 11.34 c 0,0.67 -0.04,1.57 -0.37,2.85 l -10.97,-2.85 h 11.34 -9.81 l 9.49,-2.58 c 0.07,0.37 0.29,0.89 0.32,2.58 h -9.81 l 9.49,-2.58 -3.49,0.95 3.39,-1.29 0.1,0.34 -3.49,0.95 3.39,-1.29 c 0.07,0.24 0.78,1.8 1.78,3.7 3.57,6.84 10.91,19.27 17.32,29.68 3.2,5.21 6.2,9.98 8.39,13.35 1.09,1.68 1.99,3.03 2.54,3.81 l 0.32,0.44 0.08,0.12 -5.49,4.26 5.05,-4.77 0.44,0.51 -5.49,4.26 5.05,-4.77 -7.97,7.54 6.73,-8.66 1.24,1.12 -7.97,7.54 6.73,-8.66 -7.15,9.2 5.28,-10.38 c 0.97,0.5 1.48,0.88 1.87,1.18 l -7.15,9.2 5.28,-10.38 -5.35,10.53 v -11.81 c 2.92,0.06 4.38,0.83 5.35,1.28 l -5.35,10.53 v -11.81 11.85 l -5.68,-10.41 c 1.93,-1.06 4.05,-1.46 5.68,-1.44 v 11.85 l -5.68,-10.41 5.68,10.41 -11.09,-4.18 c 0.64,-1.86 2.43,-4.63 5.41,-6.23 l 5.68,10.41 -11.09,-4.18 11.04,4.16 h -11.8 c 0.02,-0.94 0.06,-2.24 0.76,-4.16 l 11.04,4.16 h -11.8 11.5 l -11.09,3.07 c -0.11,-0.53 -0.37,-1.13 -0.41,-3.07 h 11.5 l -11.09,3.07 9.69,-2.68 -9.39,3.58 -0.3,-0.9 9.69,-2.68 -9.39,3.58 c -2.34,-6.13 0.73,-12.99 6.86,-15.33 6.12,-2.34 12.99,0.74 15.32,6.86"
         style="fill:#1b3c37;fill-opacity:1;fill-rule:nonzero;stroke:none"
         id="path278" />
      <path
         d="m 4149.86,1121.4 11.85,0.8 c -0.49,6.89 -2.01,16.08 -3.56,24.06 -0.78,3.97 -1.57,7.56 -2.28,10.39 -0.37,1.43 -0.7,2.63 -1.13,3.88 -0.23,0.66 -0.43,1.28 -0.99,2.37 -0.31,0.58 -0.64,1.27 -1.65,2.48 -0.53,0.61 -1.23,1.39 -2.58,2.29 -1.31,0.86 -3.54,1.95 -6.57,1.96 -1.84,0.01 -3.84,-0.48 -5.4,-1.3 -2.39,-1.23 -3.74,-2.85 -4.54,-4.02 -0.79,-1.21 -1.14,-2.12 -1.4,-2.84 l 11.24,-3.83 -4.52,10.98 c -6.87,-2.84 -15.62,-7.09 -22.95,-10.93 -3.67,-1.92 -6.93,-3.72 -9.5,-5.25 -1.3,-0.78 -2.39,-1.47 -3.52,-2.28 l -2,-1.65 c -0.44,-0.44 -0.97,-0.95 -1.71,-2.01 -0.63,-1.09 -2,-2.68 -2.16,-6.89 -0.05,-2.07 0.68,-4.85 2.2,-6.92 1.49,-2.11 3.35,-3.31 4.72,-3.94 l 0.08,-0.04 c 15.08,-6.87 26.57,-11.08 41.3,-18.05 3.8,-1.79 8.29,-1.44 11.77,0.93 3.47,2.37 5.44,6.42 5.15,10.61 l -11.85,-0.8 5.08,10.73 c -15.79,7.45 -27.49,11.74 -41.58,18.18 l 0.09,-0.04 -4.97,-10.65 9.58,6.8 c -1.47,2.07 -3.29,3.24 -4.61,3.85 l -4.97,-10.65 9.58,6.8 -9.61,-6.81 h 11.78 c 0.05,2.02 -0.67,4.77 -2.17,6.81 l -9.61,-6.81 h 11.78 -11.58 l 9.54,-6.6 c 0.55,0.97 1.88,2.47 2.04,6.6 h -11.58 l 9.54,-6.6 -7.86,5.44 6.05,-7.45 c 0.19,0.22 0.56,0.3 1.81,2.01 l -7.86,5.44 6.05,-7.45 -1.57,1.92 1.47,-2 0.1,0.08 -1.57,1.92 1.47,-2 c 0.18,0.16 2.02,1.32 4.28,2.58 6.92,3.9 19.27,10.07 26.81,13.16 3.18,1.3 5.61,3.89 6.72,7.14 l -11,3.76 8.69,-7.71 c 1.56,1.81 1.98,3.09 2.31,3.95 l -11,3.76 8.69,-7.71 -8.81,7.81 5.33,-10.5 c 1.57,0.8 2.7,1.81 3.48,2.69 l -8.81,7.81 5.33,-10.5 -5.35,10.53 v -11.81 c 1.83,-0.01 3.8,0.48 5.35,1.28 l -5.35,10.53 v -11.81 11.78 l -6.46,-9.85 c 1.28,-0.84 3.47,-1.92 6.46,-1.93 v 11.78 l -6.46,-9.85 6.28,9.56 -9.69,-6.11 c 0.49,-0.64 0.91,-1.69 3.41,-3.45 l 6.28,9.56 -9.69,-6.11 7.18,4.53 -7.97,-2.99 c 0.07,-0.11 0.06,-0.32 0.79,-1.54 l 7.18,4.53 -7.97,-2.99 0.95,0.36 -0.96,-0.34 0.01,-0.02 0.95,0.36 -0.96,-0.34 c 0.09,-0.2 0.67,-2.28 1.23,-4.76 1.74,-7.58 4.1,-21.04 4.51,-27.47 l 11.84,0.81 5.08,10.73 -5.08,-10.73"
         style="fill:#1b3c37;fill-opacity:1;fill-rule:nonzero;stroke:none"
         id="path280" />
      <path
         d="m 4176.19,1185.6 c 17.17,20.91 34.36,41.82 51.54,62.73 l -9.18,7.54 -8.71,-8.07 c 7.37,-7.94 18.22,-21.26 27.04,-32.42 4.43,-5.58 8.37,-10.66 11.21,-14.33 2.83,-3.67 4.53,-5.91 4.54,-5.91 3.97,-5.22 11.42,-6.24 16.64,-2.27 5.22,3.97 6.23,11.42 2.26,16.64 -0.03,0.04 -7.03,9.25 -16.03,20.61 -9.02,11.4 -19.93,24.85 -28.23,33.82 -2.34,2.52 -5.63,3.9 -9.07,3.8 -3.43,-0.1 -6.64,-1.68 -8.82,-4.33 -17.18,-20.91 -34.36,-41.82 -51.54,-62.74 -4.17,-5.07 -3.43,-12.55 1.64,-16.71 5.06,-4.16 12.55,-3.43 16.71,1.64"
         style="fill:#1b3c37;fill-opacity:1;fill-rule:nonzero;stroke:none"
         id="path282" />
      <path
         d="m 4238.15,1193.88 -5.7,-10.42 c 5.79,-3.15 13.82,-6.62 21.13,-9.54 3.64,-1.45 7.04,-2.73 9.85,-3.69 1.41,-0.49 2.66,-0.89 3.84,-1.23 l 1.87,-0.47 c 0.74,-0.13 1.38,-0.32 3.14,-0.35 0.93,0.05 2.13,-0.07 4.76,0.94 1.28,0.55 3.09,1.54 4.74,3.58 1.67,2 2.67,5.07 2.61,7.45 -0.02,2.25 -0.58,3.84 -1.08,4.96 -0.51,1.12 -1.02,1.85 -1.46,2.42 l -9.39,-7.27 11.69,-2.1 c 1.06,5.94 2,13.39 2.71,20.41 0.7,7.06 1.16,13.39 1.18,17.71 -0.01,1.15 -0.02,2.11 -0.18,3.49 -0.11,0.74 -0.16,1.5 -0.75,3.17 -0.34,0.85 -0.74,2 -2.17,3.74 -0.73,0.85 -1.78,1.87 -3.36,2.74 -1.55,0.88 -3.7,1.51 -5.77,1.49 -2.86,0.01 -5.36,-1.06 -6.96,-2.23 l 6.89,-9.67 -6.43,9.98 c -13.93,-8.99 -23.66,-16.41 -37.46,-25.05 -3.57,-2.24 -5.69,-6.21 -5.56,-10.41 0.12,-4.21 2.47,-8.05 6.16,-10.07 l 5.7,10.42 6.31,-10.06 c 14.79,9.28 24.69,16.83 37.72,25.22 l 0.45,0.3 -6.82,9.58 v -11.76 c 2.82,-0.01 5.26,1.05 6.82,2.18 l -6.82,9.58 v -11.76 11.79 l -5.69,-10.32 c 1.53,-0.87 3.64,-1.48 5.69,-1.47 v 11.79 l -5.69,-10.32 5.63,10.21 -10.2,-5.67 c 0.63,-1.05 1.66,-2.86 4.57,-4.54 l 5.63,10.21 -10.2,-5.67 9.37,5.21 -10.54,-2.07 c 0.14,-0.5 0.16,-1.21 1.17,-3.14 l 9.37,5.21 -10.54,-2.07 7.11,1.4 -7.21,-0.77 0.1,-0.63 7.11,1.4 -7.21,-0.77 v -0.02 l 0.01,-0.64 c 0.01,-2.58 -0.4,-8.83 -1.06,-15.34 -0.65,-6.55 -1.57,-13.66 -2.45,-18.57 -0.6,-3.3 0.24,-6.72 2.29,-9.37 l 9.14,7.07 -10.52,-4.77 c 0.5,-1.09 0.98,-1.78 1.38,-2.3 l 9.14,7.07 -10.52,-4.77 10.7,4.85 h -11.75 c 0.01,-2.22 0.57,-3.77 1.05,-4.85 l 10.7,4.85 h -11.75 11.8 l -9.22,7.37 c -1.66,-1.98 -2.65,-5.02 -2.58,-7.37 h 11.8 l -9.22,7.37 9.17,-7.33 -2.86,11.39 c -1.32,-0.38 -3.78,-1.04 -6.31,-4.06 l 9.17,-7.33 -2.86,11.39 2.75,-10.96 v 11.31 c -0.57,-0.02 -1.35,-0.01 -2.75,-0.35 l 2.75,-10.96 v 11.31 -8.55 l 1.78,8.39 c -0.14,0 -0.32,0.13 -1.78,0.16 v -8.55 l 1.78,8.39 h -0.02 c -0.48,0.11 -2.54,0.76 -4.97,1.65 -7.36,2.65 -19.67,7.8 -25.21,10.87 l -5.71,-10.41 6.31,-10.06 -6.31,10.06"
         style="fill:#1b3c37;fill-opacity:1;fill-rule:nonzero;stroke:none"
         id="path284" />
      <path
         d="m 4340.9,1564.6 c 10.25,-27.76 23.22,-54.5 38.7,-79.71 1.74,-2.85 5.46,-3.74 8.31,-1.99 2.84,1.74 3.73,5.46 1.99,8.31 -15.06,24.53 -27.69,50.56 -37.67,77.57 -1.16,3.13 -4.63,4.73 -7.76,3.58 -3.13,-1.16 -4.73,-4.63 -3.57,-7.76"
         style="fill:#e4f4d9;fill-opacity:1;fill-rule:nonzero;stroke:none"
         id="path286" />
      <path
         d="m 4342.71,1373.6 c 31.9,0 63.78,0 95.67,0 3.34,0 6.04,2.7 6.04,6.04 0,3.34 -2.7,6.04 -6.04,6.04 -31.89,0 -63.77,0 -95.67,0 -3.33,0 -6.04,-2.7 -6.04,-6.04 0,-3.34 2.71,-6.04 6.04,-6.04"
         style="fill:#e4f4d9;fill-opacity:1;fill-rule:nonzero;stroke:none"
         id="path288" />
      <path
         d="m 3484.27,3531.3 c 138.74,-84.19 282.61,-228.16 396.33,-400.68 113.79,-172.5 197.5,-373.51 217.6,-571.37 0.77,-7.59 7.54,-13.11 15.13,-12.34 7.59,0.77 13.11,7.55 12.34,15.13 -20.77,203.66 -106.29,408.26 -222.02,583.79 -115.8,175.52 -261.75,322.01 -405.05,409.08 -6.52,3.96 -15.01,1.88 -18.97,-4.64 -3.96,-6.52 -1.88,-15.01 4.64,-18.97"
         style="fill:#57ae9b;fill-opacity:1;fill-rule:nonzero;stroke:none"
         id="path290" />
      <path
         d="m 4041.51,2575.17 c 22.62,-12.05 44.15,-26.17 64.21,-42.12 3.05,-2.43 6.91,-3.44 10.76,-2.83 3.85,0.61 7.2,2.77 9.35,6.02 14.96,22.62 29.92,45.23 44.88,67.84 4.2,6.36 2.46,14.93 -3.9,19.14 -6.37,4.2 -14.93,2.46 -19.14,-3.91 -14.95,-22.6 -29.91,-45.22 -44.87,-67.83 l 11.52,-7.62 8.59,10.81 c -21.38,16.99 -44.31,32.03 -68.42,44.87 -6.73,3.59 -15.1,1.03 -18.68,-5.7 -3.58,-6.73 -1.03,-15.09 5.7,-18.68"
         style="fill:#57ae9b;fill-opacity:1;fill-rule:nonzero;stroke:none"
         id="path292" />
      <path
         d="M 3223.85,834.16 C 3058.19,741.422 2817.93,683 2574.3,683.07 c -172.96,-0.011 -347.62,29.34 -498.81,95.75 -6.99,3.059 -15.13,-0.109 -18.2,-7.101 -3.06,-6.977 0.11,-15.129 7.1,-18.188 155.63,-68.312 333.85,-98.062 509.91,-98.082 248.06,0.071 491.83,58.949 663.03,154.61 6.65,3.722 9.03,12.132 5.31,18.793 -3.73,6.66 -12.14,9.027 -18.79,5.308"
         style="fill:#57ae9b;fill-opacity:1;fill-rule:nonzero;stroke:none"
         id="path294" />
      <path
         d="m 2117.27,820.301 c -21.63,-13.75 -44.53,-25.531 -68.29,-35.129 -3.62,-1.461 -6.4,-4.32 -7.76,-7.973 -1.37,-3.648 -1.14,-7.629 0.63,-11.109 12.31,-24.16 24.62,-48.309 36.93,-72.469 3.46,-6.789 11.77,-9.492 18.57,-6.031 6.79,3.461 9.49,11.781 6.03,18.57 -12.31,24.16 -24.62,48.309 -36.93,72.469 l -12.3,-6.27 5.18,-12.8 c 25.32,10.242 49.71,22.781 72.76,37.441 6.43,4.09 8.33,12.629 4.24,19.059 -4.09,6.441 -12.63,8.339 -19.06,4.242"
         style="fill:#57ae9b;fill-opacity:1;fill-rule:nonzero;stroke:none"
         id="path296" />
      <path
         d="m 834.621,2605.69 c 18.875,161.2 89.996,351.9 199.619,527.05 109.57,175.22 257.57,334.92 429.17,435.47 6.58,3.86 8.78,12.32 4.93,18.9 -3.86,6.57 -12.32,8.78 -18.9,4.92 -176.58,-103.56 -327.09,-266.41 -438.62,-444.64 -111.476,-178.3 -184.023,-371.95 -203.625,-538.48 -0.89,-7.57 4.528,-14.43 12.102,-15.32 7.574,-0.89 14.437,4.53 15.324,12.1"
         style="fill:#57ae9b;fill-opacity:1;fill-rule:nonzero;stroke:none"
         id="path298" />
      <path
         d="m 1472.5,3510.03 c 1.55,25.59 5.44,51.04 11.6,75.92 0.94,3.78 0.26,7.72 -1.9,10.96 -2.15,3.25 -5.51,5.4 -9.36,6 -26.79,4.2 -53.58,8.4 -80.36,12.61 -7.53,1.18 -14.6,-3.97 -15.78,-11.5 -1.18,-7.54 3.97,-14.6 11.5,-15.79 26.78,-4.2 53.57,-8.4 80.36,-12.6 l 2.14,13.64 -13.4,3.32 c -6.57,-26.51 -10.71,-53.62 -12.37,-80.89 -0.46,-7.61 5.34,-14.15 12.95,-14.61 7.61,-0.46 14.16,5.33 14.62,12.94"
         style="fill:#57ae9b;fill-opacity:1;fill-rule:nonzero;stroke:none"
         id="path300" />
      <path
         d="m 733.832,1058.61 c 70.676,188.28 109.82,388.36 115.313,589.4 h 203.315 c 12.75,-146.27 26.52,-309.27 47.99,-454.51 7.06,-47.82 14.78,-96.19 34.2,-140.45"
         style="fill:#2c625c;fill-opacity:1;fill-rule:nonzero;stroke:none"
         id="path302" />
      <path
         d="m 950.855,1267.29 v 145.77 c -38.382,-27.15 -104.402,-69.66 -151.796,-99.95 v 99.95 c -44.723,-31.63 -127.067,-84.1 -173.61,-113.81 v 113.81 C 561.199,1367.61 419.18,1279.1 417.457,1276.95 415.691,1123.34 413.926,964.879 412.156,811.27 h 774.464 l 0.05,456.02 H 950.855"
         style="fill:#48ae9c;fill-opacity:1;fill-rule:nonzero;stroke:none"
         id="path304" />
      <path
         d="m 984.297,811.832 c -0.297,53.09 -1.031,106.18 -2.207,159.258 h 141.14 c 1.21,-6.649 0,-158.551 0,-158.551"
         style="fill:#2c625c;fill-opacity:1;fill-rule:nonzero;stroke:none"
         id="path306" />
      <path
         d="m 484.137,1033.03 c -0.157,27.77 -0.543,55.54 -1.157,83.32 h 73.836 c 0.629,-3.48 0,-82.95 0,-82.95"
         style="fill:#2c625c;fill-opacity:1;fill-rule:nonzero;stroke:none"
         id="path308" />
      <path
         d="m 636.035,1033.03 c -0.152,27.77 -0.539,55.54 -1.152,83.32 h 73.832 c 0.637,-3.48 0,-82.95 0,-82.95"
         style="fill:#2c625c;fill-opacity:1;fill-rule:nonzero;stroke:none"
         id="path310" />
      <path
         d="m 820.492,1033.03 c -0.156,27.77 -0.543,55.54 -1.156,83.32 h 73.84 c 0.629,-3.48 0,-82.95 0,-82.95"
         style="fill:#2c625c;fill-opacity:1;fill-rule:nonzero;stroke:none"
         id="path312" />
      <path
         d="m 741.27,1798.23 c 34.304,-27.61 79.023,-18.11 116.835,-34.74 32.594,-14.34 75.997,-82.6 111.329,-68.58 60.236,23.91 30.806,113.21 -14.215,133.3 -26.735,11.94 -59.082,11.47 -82.117,29.53 -10.832,8.49 -18.457,20.29 -27.079,31.02 -92.656,115.34 -208.343,-7.16 -104.753,-90.53"
         style="fill:#92dad1;fill-opacity:1;fill-rule:nonzero;stroke:none"
         id="path314" />
      <g
         id="g316"
         transform="scale(10)">
        <text
           xml:space="preserve"
           transform="matrix(1,0,0,-1,27.427,62.3172)"
           style="font-variant:normal;font-weight:bold;font-size:11.6457px;font-family:Mali;-inkscape-font-specification:Mali-Bold;writing-mode:lr-tb;fill:#1b3c37;fill-opacity:1;fill-rule:nonzero;stroke:none"
           id="text320"><tspan
             x="0 5.1590452 8.7459211 12.938373 22.359743 30.476797 39.315884 47.514458 53.814743 61.2332 69.874313 76.75692 84.95549 93.014313 98.953621 107.79271"
             y="0"
             sodipodi:role="line"
             id="tspan318">1. MANUFACTURING</tspan></text>
        <text
           xml:space="preserve"
           transform="matrix(1,0,0,-1,40.6704,47.4039)"
           style="font-variant:normal;font-weight:normal;font-size:8.46138px;font-family:Mali;-inkscape-font-specification:Mali-Regular;writing-mode:lr-tb;fill:#1b3c37;fill-opacity:1;fill-rule:nonzero;stroke:none"
           id="text326"><tspan
             x="0 4.450686 9.4682846 13.715897 18.953491 25.69721 28.404852 30.994036 36.214706 40.326939 44.955311 51.699032 54.406673 59.771187 64.788788 66.91259 71.930191 76.177803 78.885445 82.997673 85.586861 89.308594"
             y="0"
             sodipodi:role="line"
             id="tspan322">Lorem ipsum dolor sit </tspan><tspan
             x="0 5.2714396 12.01516 17.252754 20.974998 23.513412 26.221054 31.196344 36.213943 40.901546 45.013779 50.251373 55.226665 58.949673 64.187263 67.910271 72.538651 77.776245 82.023857 84.528419"
             y="10.1527"
             sodipodi:role="line"
             id="tspan324">amet, consectetuer. </tspan></text>
      </g>
      <path
         d="m 2935.77,4136.37 c -0.24,-21.22 -17.74,-38.11 -38.95,-37.56 -44.76,1.17 -117.49,2.99 -156.38,3.56 -22.37,0.33 -40.42,18.31 -40.81,40.67 -1.75,99.73 4.13,206.68 2.48,306.5 -0.39,23.49 18.75,42.52 42.25,42.02 50.17,-1.07 109.94,-1.23 148.67,-0.67 22.64,0.33 41.35,-17.5 41.97,-40.14 2.71,-100.21 1.55,-245.74 0.77,-314.38"
         style="fill:#2c625c;fill-opacity:1;fill-rule:nonzero;stroke:none"
         id="path328" />
      <path
         d="m 2897.55,4127.01 c -41.39,1.08 -116.79,2.97 -156.7,3.56 -7.17,0.11 -12.89,5.8 -13.01,12.95 -0.89,49.68 0.19,102.3 1.21,153.2 1.03,50.73 2.08,103.19 1.26,153.28 -0.09,4.82 2.32,7.99 3.75,9.45 1.45,1.46 4.57,3.91 9.39,3.91 30.4,-0.63 65.6,-0.99 99.44,-0.99 18.72,0 36.09,0.11 50.55,0.32 7.39,0 13.17,-5.58 13.37,-12.71 2.65,-97.99 1.62,-238.35 0.76,-313.29 -0.06,-5.34 -4.44,-9.68 -9.74,-9.68 h -0.28"
         style="fill:#48ae9c;fill-opacity:1;fill-rule:nonzero;stroke:none"
         id="path330" />
      <path
         d="m 2857.04,4471.32 c 0.03,-10.47 3.96,-24.3 -15,-25.23 -3.77,-0.18 -7.55,-0.16 -11.32,-0.14 -6.79,0.03 -13.59,0.07 -20.39,0.11 -7.24,0.04 -14.75,0.12 -21.3,2.45 -15.66,5.57 -8.83,17.76 -9.44,28.01"
         style="fill:#2c625c;fill-opacity:1;fill-rule:nonzero;stroke:none"
         id="path332" />
      <path
         d="m 2875.05,4430.07 c 1.33,-11.09 2.66,-22.19 4,-33.29 0.4,-3.31 3.41,-5.67 6.72,-5.27 3.31,0.4 5.68,3.41 5.28,6.72 -1.34,11.09 -2.67,22.19 -4.01,33.29 -0.4,3.31 -3.41,5.67 -6.72,5.27 -3.31,-0.4 -5.67,-3.4 -5.27,-6.72"
         style="fill:#e4f4d9;fill-opacity:1;fill-rule:nonzero;stroke:none"
         id="path334" />
      <path
         d="m 2419.14,4234.76 c -53.89,4.88 -107.7,3.33 -161.51,-2.35 0.16,-34.05 0.32,-68.09 0.49,-102.14 53.95,2.98 106.98,1.32 161.02,1.66 -1.06,34.04 1.06,68.78 0,102.83"
         style="fill:#378d7f;fill-opacity:1;fill-rule:nonzero;stroke:none"
         id="path336" />
      <path
         d="m 2563.72,4589.66 c -84.57,0.14 -375.44,0.57 -457.78,0.18 -12.17,-0.05 -22.26,-9.38 -23.15,-21.52 -7.63,-104.57 -4.61,-269.49 -2.42,-330.02 0.46,-12.57 10.73,-22.51 23.32,-22.48 82.73,0.24 373.97,-5.92 459.47,-7.77 13.1,-0.28 23.78,10.25 23.78,23.34 v 334.92 c 0,12.88 -10.35,23.32 -23.22,23.35"
         style="fill:#48ae9c;fill-opacity:1;fill-rule:nonzero;stroke:none"
         id="path338" />
      <path
         d="m 2553.14,4555.89 c 0,0 -423.71,0.71 -439.5,0 -10.5,-102.2 -3.92,-305.3 -2.59,-308.35 -1.33,3.05 442.09,-6.22 442.09,-6.22 v 314.57"
         style="fill:#2c625c;fill-opacity:1;fill-rule:nonzero;stroke:none"
         id="path340" />
      <path
         d="m 2452.05,4129.84 c -3.25,2.94 -8.05,4.82 -13.03,5.89 -13.53,2.91 -29.36,1.46 -43.38,1.7 -15.56,0.25 -31.11,0.51 -46.68,0.77 -30.67,0.51 -61.36,1.01 -92.04,1.52 -8.16,0.14 -23.55,1.32 -29.89,-3.39 -5.17,-3.83 -5.78,-11.27 -2.16,-15.69 9.87,-12.07 38.07,-7.97 53.78,-8.24 32,-0.55 64,-1.11 96,-1.66 13.52,-0.23 27.01,-1.01 40.54,-0.96 9.79,0.03 20.37,-0.76 29.73,1.77 10.66,2.89 14.68,11.42 7.13,18.29"
         style="fill:#48ae9c;fill-opacity:1;fill-rule:nonzero;stroke:none"
         id="path342" />
      <path
         d="m 2520.52,4534.66 c 0,-12.48 0,-24.95 0,-37.43 0,-3.34 2.71,-6.05 6.04,-6.05 3.34,0 6.04,2.71 6.04,6.05 0,12.48 0,24.95 0,37.43 0,3.34 -2.7,6.04 -6.04,6.04 -3.33,0 -6.04,-2.7 -6.04,-6.04"
         style="fill:#e4f4d9;fill-opacity:1;fill-rule:nonzero;stroke:none"
         id="path344" />
      <g
         id="g346"
         transform="scale(10)">
        <text
           xml:space="preserve"
           transform="matrix(1,0,0,-1,178.102,393.801)"
           style="font-variant:normal;font-weight:bold;font-size:11.6457px;font-family:Mali;-inkscape-font-specification:Mali-Bold;writing-mode:lr-tb;fill:#1b3c37;fill-opacity:1;fill-rule:nonzero;stroke:none"
           id="text350"><tspan
             x="0 6.5099463 10.096822 14.289274 22.930384 32.385937 41.225021 48.515228 56.712898 66.134781 74.088799 80.970627 86.909927 96.366241 105.20532 109.39777 118.12041 122.31286 130.51143 137.80164"
             y="0"
             sodipodi:role="line"
             id="tspan348">2. CONSUMPTION &amp; USE</tspan></text>
        <text
           xml:space="preserve"
           transform="matrix(1,0,0,-1,194.209,378.9119)"
           style="font-variant:normal;font-weight:normal;font-size:8.46138px;font-family:Mali;-inkscape-font-specification:Mali-Regular;writing-mode:lr-tb;fill:#1b3c37;fill-opacity:1;fill-rule:nonzero;stroke:none"
           id="text356"><tspan
             x="0 4.450686 9.4682846 13.715897 18.953491 25.69721 28.404852 30.994036 36.214706 40.326939 44.955311 51.699032 54.406673 59.771187 64.788788 66.91259 71.930191 76.177803 78.885445 82.997673 85.586861 89.309868 92.017509 97.288948 104.03267 109.27026 112.99327 115.53168"
             y="0"
             sodipodi:role="line"
             id="tspan352">Lorem ipsum dolor sit amet, </tspan><tspan
             x="0 4.9752913 9.9928894 14.680494 18.792725 24.030319 29.005611 32.728619 37.966213 41.68922 46.317593 51.555187 55.802799 58.510441 63.781883 69.1464 71.73558 76.956253 79.545433 83.657661 88.632957 91.222137 95.909744 100.81734 103.52499 108.76258 110.88638 113.47557 117.19858 119.70314"
             y="10.1539"
             sodipodi:role="line"
             id="tspan354">consectetuer adipiscing elit. </tspan></text>
      </g>
      <path
         d="m 1691.16,2577.19 c 90.72,218.08 280.47,390.52 518.71,460.33 80.13,23.48 164.26,34.77 248.53,34.77 230.97,0 463,-84.81 616.57,-235.93 37.37,-36.78 70.64,-77.03 99.79,-119.84 l 232.75,67.04 111.71,210.84 c -40.39,55.68 -85.26,108.16 -134.57,156.68 -323.53,318.35 -845.54,443.01 -1298.92,310.16 -368.35,-107.92 -662.12,-376.55 -803.14,-717.11 l 248.62,18.65 159.95,-185.59"
         style="fill:#468e76;fill-opacity:1;fill-rule:nonzero;stroke:none"
         id="path358" />
      <path
         d="m 1722.85,3085.49 c -11.04,-10.9 -21.84,-22.28 -32.42,-34.19 -20.74,-23.37 -41.88,-47.37 -53.46,-76.39 -11.58,-29.02 -11.89,-64.55 7.24,-89.25 25.68,-33.15 77.14,-35.09 115.08,-17.23 37.94,17.85 66.34,50.53 96.25,79.92 201.31,197.85 524.26,270.54 798.18,233.59 175.66,-23.69 323.57,-134.84 465.46,-231.71 29.79,-20.33 64.09,-40.81 99.59,-34.37 52.71,9.57 71.73,63.45 55.05,110.01 -4.82,13.41 -12.9,25.38 -21.41,36.81 -44.72,60.09 -99.78,101.81 -163.16,140.52 -63.99,39.07 -131.21,72.91 -201.03,100.29 -141.53,55.5 -293.85,83.84 -446,76.25 -149.75,-7.47 -296.39,-43.58 -432.28,-106.97 -108.41,-50.57 -204.18,-105.35 -287.09,-187.28"
         style="fill:#9ed760;fill-opacity:1;fill-rule:nonzero;stroke:none"
         id="path360" />
      <g
         id="g362"
         transform="scale(10)">
        <text
           xml:space="preserve"
           transform="matrix(0.608923,0.793229,0.793229,-0.608923,173.232,288.406)"
           style="font-variant:normal;font-weight:normal;font-size:14px;font-family:Mali;-inkscape-font-specification:Mali-Regular;writing-mode:lr-tb;fill:#1b3c37;fill-opacity:1;fill-rule:nonzero;stroke:none"
           id="text366"><tspan
             x="0"
             y="0"
             id="tspan364">2</tspan></text>
        <text
           xml:space="preserve"
           transform="matrix(0.669252,0.743036,0.743036,-0.669252,177.91,294.393)"
           style="font-variant:normal;font-weight:normal;font-size:14px;font-family:Mali;-inkscape-font-specification:Mali-Regular;writing-mode:lr-tb;fill:#1b3c37;fill-opacity:1;fill-rule:nonzero;stroke:none"
           id="text370"><tspan
             x="0"
             y="0"
             id="tspan368">.</tspan></text>
        <text
           xml:space="preserve"
           transform="matrix(0.769274,0.63892,0.63892,-0.769274,183.524,300.481)"
           style="font-variant:normal;font-weight:normal;font-size:14px;font-family:Mali;-inkscape-font-specification:Mali-Regular;writing-mode:lr-tb;fill:#1b3c37;fill-opacity:1;fill-rule:nonzero;stroke:none"
           id="text374"><tspan
             x="0"
             y="0"
             id="tspan372">C</tspan></text>
        <text
           xml:space="preserve"
           transform="matrix(0.842755,0.538297,0.538297,-0.842755,190.978,306.73)"
           style="font-variant:normal;font-weight:normal;font-size:14px;font-family:Mali;-inkscape-font-specification:Mali-Regular;writing-mode:lr-tb;fill:#1b3c37;fill-opacity:1;fill-rule:nonzero;stroke:none"
           id="text378"><tspan
             x="0"
             y="0"
             id="tspan376">O</tspan></text>
        <text
           xml:space="preserve"
           transform="matrix(0.901489,0.432803,0.432803,-0.901489,200.103,312.546)"
           style="font-variant:normal;font-weight:normal;font-size:14px;font-family:Mali;-inkscape-font-specification:Mali-Regular;writing-mode:lr-tb;fill:#1b3c37;fill-opacity:1;fill-rule:nonzero;stroke:none"
           id="text382"><tspan
             x="0"
             y="0"
             id="tspan380">N</tspan></text>
        <text
           xml:space="preserve"
           transform="matrix(0.939776,0.341791,0.341791,-0.939776,209.22,316.867)"
           style="font-variant:normal;font-weight:normal;font-size:14px;font-family:Mali;-inkscape-font-specification:Mali-Regular;writing-mode:lr-tb;fill:#1b3c37;fill-opacity:1;fill-rule:nonzero;stroke:none"
           id="text386"><tspan
             x="0"
             y="0"
             id="tspan384">S</tspan></text>
        <text
           xml:space="preserve"
           transform="matrix(0.96677,0.255648,0.255648,-0.96677,216.415,319.524)"
           style="font-variant:normal;font-weight:normal;font-size:14px;font-family:Mali;-inkscape-font-specification:Mali-Regular;writing-mode:lr-tb;fill:#1b3c37;fill-opacity:1;fill-rule:nonzero;stroke:none"
           id="text390"><tspan
             x="0"
             y="0"
             id="tspan388">U</tspan></text>
        <text
           xml:space="preserve"
           transform="matrix(0.987862,0.155336,0.155336,-0.987862,225.206,321.902)"
           style="font-variant:normal;font-weight:normal;font-size:14px;font-family:Mali;-inkscape-font-specification:Mali-Regular;writing-mode:lr-tb;fill:#1b3c37;fill-opacity:1;fill-rule:nonzero;stroke:none"
           id="text394"><tspan
             x="0"
             y="0"
             id="tspan392">M</tspan></text>
        <text
           xml:space="preserve"
           transform="matrix(0.99814,0.0609666,0.0609666,-0.99814,236.011,323.548)"
           style="font-variant:normal;font-weight:normal;font-size:14px;font-family:Mali;-inkscape-font-specification:Mali-Regular;writing-mode:lr-tb;fill:#1b3c37;fill-opacity:1;fill-rule:nonzero;stroke:none"
           id="text398"><tspan
             x="0"
             y="0"
             id="tspan396">P</tspan></text>
        <text
           xml:space="preserve"
           transform="matrix(0.999866,-0.0163611,-0.0163611,-0.999866,244.36,324.05)"
           style="font-variant:normal;font-weight:normal;font-size:14px;font-family:Mali;-inkscape-font-specification:Mali-Regular;writing-mode:lr-tb;fill:#1b3c37;fill-opacity:1;fill-rule:nonzero;stroke:none"
           id="text402"><tspan
             x="0"
             y="0"
             id="tspan400">T</tspan></text>
        <text
           xml:space="preserve"
           transform="matrix(0.996642,-0.081887,-0.081887,-0.996642,252.009,323.902)"
           style="font-variant:normal;font-weight:normal;font-size:14px;font-family:Mali;-inkscape-font-specification:Mali-Regular;writing-mode:lr-tb;fill:#1b3c37;fill-opacity:1;fill-rule:nonzero;stroke:none"
           id="text406"><tspan
             x="0"
             y="0"
             id="tspan404">I</tspan></text>
        <text
           xml:space="preserve"
           transform="matrix(0.986729,-0.162378,-0.162378,-0.986729,257.942,323.523)"
           style="font-variant:normal;font-weight:normal;font-size:14px;font-family:Mali;-inkscape-font-specification:Mali-Regular;writing-mode:lr-tb;fill:#1b3c37;fill-opacity:1;fill-rule:nonzero;stroke:none"
           id="text410"><tspan
             x="0"
             y="0"
             id="tspan408">O</tspan></text>
        <text
           xml:space="preserve"
           transform="matrix(0.964976,-0.262337,-0.262337,-0.964976,268.648,321.756)"
           style="font-variant:normal;font-weight:normal;font-size:14px;font-family:Mali;-inkscape-font-specification:Mali-Regular;writing-mode:lr-tb;fill:#1b3c37;fill-opacity:1;fill-rule:nonzero;stroke:none"
           id="text414"><tspan
             x="0"
             y="0"
             id="tspan412">N</tspan></text>
        <text
           xml:space="preserve"
           transform="matrix(0.916598,-0.39981,-0.39981,-0.916598,282.531,317.67)"
           style="font-variant:normal;font-weight:normal;font-size:14px;font-family:Mali;-inkscape-font-specification:Mali-Regular;writing-mode:lr-tb;fill:#1b3c37;fill-opacity:1;fill-rule:nonzero;stroke:none"
           id="text418"><tspan
             x="0"
             y="0"
             id="tspan416">&amp;</tspan></text>
        <text
           xml:space="preserve"
           transform="matrix(0.84662,-0.532197,-0.532197,-0.84662,295.439,311.685)"
           style="font-variant:normal;font-weight:normal;font-size:14px;font-family:Mali;-inkscape-font-specification:Mali-Regular;writing-mode:lr-tb;fill:#1b3c37;fill-opacity:1;fill-rule:nonzero;stroke:none"
           id="text422"><tspan
             x="0"
             y="0"
             id="tspan420">U</tspan></text>
        <text
           xml:space="preserve"
           transform="matrix(0.791387,-0.611315,-0.611315,-0.791387,303.16,306.805)"
           style="font-variant:normal;font-weight:normal;font-size:14px;font-family:Mali;-inkscape-font-specification:Mali-Regular;writing-mode:lr-tb;fill:#1b3c37;fill-opacity:1;fill-rule:nonzero;stroke:none"
           id="text426"><tspan
             x="0"
             y="0"
             id="tspan424">S</tspan></text>
        <text
           xml:space="preserve"
           transform="matrix(0.731516,-0.681824,-0.681824,-0.731516,309.231,302.135)"
           style="font-variant:normal;font-weight:normal;font-size:14px;font-family:Mali;-inkscape-font-specification:Mali-Regular;writing-mode:lr-tb;fill:#1b3c37;fill-opacity:1;fill-rule:nonzero;stroke:none"
           id="text430"><tspan
             x="0"
             y="0"
             id="tspan428">E</tspan></text>
      </g>
    </g>
  </g>
</svg>
