<svg width="1668" height="664" viewBox="0 0 1668 664" fill="none" xmlns="http://www.w3.org/2000/svg">
<path d="M212.9 527.019C328.977 527.019 423.286 434.563 425.683 319.627H324.839C322.479 379.135 273.277 426.663 212.9 426.663C151.02 426.663 100.844 376.75 100.844 315.167C100.844 255.457 148.017 206.71 207.291 203.806V103.456C92.3104 106.433 0 200.036 0 315.167C0 432.172 95.3203 527.019 212.9 527.019" fill="#00A86D"/>
<path d="M307.645 93.5926C305.112 94.2593 302.045 94.3926 300.845 93.9926C299.645 93.7259 296.579 94.3926 293.779 95.4593C291.112 96.6593 288.312 97.1926 287.512 96.6593C286.845 96.2593 285.379 96.6593 284.312 97.4593C283.245 98.3926 281.112 98.7926 279.512 98.3926C275.645 97.3259 264.045 106.259 262.579 111.326C261.912 113.859 259.779 116.126 256.712 117.726C251.512 120.526 236.179 138.126 238.045 139.326C240.045 140.526 239.645 147.859 237.512 149.593C236.445 150.393 235.645 152.126 235.645 153.459C235.645 154.659 235.245 156.126 234.712 156.526C234.312 157.059 233.645 158.926 233.512 160.793C233.245 163.326 234.045 164.659 236.312 165.726C238.045 166.526 240.445 169.059 241.512 171.326C244.179 176.926 256.845 187.193 259.512 185.993C263.645 184.259 268.712 183.859 271.112 185.193C272.979 186.126 274.979 185.993 278.179 184.659C284.045 182.259 292.179 182.259 294.312 184.793C295.245 185.859 297.912 186.793 300.179 186.793C306.712 186.926 308.979 189.459 307.779 195.059C307.112 197.726 306.312 200.393 305.912 201.059C305.512 201.726 307.512 205.593 310.445 209.459C313.379 213.326 315.512 217.326 315.112 218.126C314.845 219.059 315.379 221.059 316.579 222.659C318.845 225.993 319.912 234.259 318.312 237.326C317.779 238.526 316.579 241.726 315.645 244.526C314.179 249.459 314.312 249.993 318.445 255.726C321.912 260.526 322.845 263.593 323.645 270.659C324.579 280.526 325.645 283.059 331.512 288.659C334.579 291.593 335.245 293.059 334.179 294.259C331.245 297.726 333.379 300.659 338.979 300.926C347.245 301.326 354.445 298.926 359.912 293.993C362.712 291.459 365.512 289.459 366.179 289.459C367.912 289.459 372.979 280.526 372.979 277.459C372.979 276.126 374.179 274.659 375.512 274.126C378.712 273.193 381.512 266.526 380.579 262.126C379.912 258.393 385.779 250.793 389.245 250.793C390.312 250.793 392.712 249.193 394.579 247.059C397.245 244.259 397.912 242.126 397.912 236.793C397.912 232.793 397.112 229.193 395.912 227.859C394.712 226.393 394.312 224.259 394.845 222.259C395.245 220.393 395.112 218.659 394.312 218.126C393.645 217.726 393.512 216.393 393.912 215.059C394.979 211.993 411.779 194.793 413.779 194.793C416.845 194.793 425.912 179.993 429.512 169.059C430.312 166.393 428.312 166.126 422.979 168.126C418.579 169.726 408.445 170.793 406.712 169.593C405.912 169.193 404.845 167.326 404.312 165.459C402.845 160.659 401.245 159.059 396.845 158.126C394.712 157.593 392.979 156.393 392.979 155.326C392.979 152.659 390.179 147.859 387.245 145.726C385.779 144.526 385.245 142.926 385.779 140.793C386.312 138.526 385.779 137.326 383.779 136.126C382.179 135.326 380.979 133.993 380.979 133.059C380.979 132.126 379.112 128.793 376.845 125.726C373.512 121.193 373.112 119.726 374.312 117.593C375.112 115.993 375.379 113.459 374.845 111.593C373.912 107.593 365.645 105.726 362.179 108.926C360.179 110.659 359.379 110.659 354.712 108.793C351.779 107.593 348.845 106.793 348.179 106.926C347.512 107.059 345.912 106.793 344.712 106.259C340.979 104.526 337.645 105.993 337.912 109.059C338.312 112.659 334.579 114.126 331.645 111.459C330.445 110.393 328.445 109.459 327.245 109.459C326.045 109.459 324.979 109.059 324.979 108.393C324.979 106.926 318.179 104.126 314.712 104.126C311.245 104.126 310.712 102.526 313.645 100.126C316.045 98.1259 316.312 93.9926 314.045 93.1926C313.112 92.7926 310.179 93.0593 307.645 93.5926Z" fill="black"/>
<g filter="url(#filter0_d_107_1483)">
<path d="M594 491C565.333 491 537.667 487.5 511 480.5C484.667 473.167 463.167 463.833 446.5 452.5L479 379.5C494.667 389.5 512.667 397.833 533 404.5C553.667 410.833 574.167 414 594.5 414C608.167 414 619.167 412.833 627.5 410.5C635.833 407.833 641.833 404.5 645.5 400.5C649.5 396.167 651.5 391.167 651.5 385.5C651.5 377.5 647.833 371.167 640.5 366.5C633.167 361.833 623.667 358 612 355C600.333 352 587.333 349 573 346C559 343 544.833 339.167 530.5 334.5C516.5 329.833 503.667 323.833 492 316.5C480.333 308.833 470.833 299 463.5 287C456.167 274.667 452.5 259.167 452.5 240.5C452.5 219.5 458.167 200.5 469.5 183.5C481.167 166.5 498.5 152.833 521.5 142.5C544.5 132.167 573.167 127 607.5 127C630.5 127 653 129.667 675 135C697.333 140 717.167 147.5 734.5 157.5L704 231C687.333 222 670.833 215.333 654.5 211C638.167 206.333 622.333 204 607 204C593.333 204 582.333 205.5 574 208.5C565.667 211.167 559.667 214.833 556 219.5C552.333 224.167 550.5 229.5 550.5 235.5C550.5 243.167 554 249.333 561 254C568.333 258.333 577.833 262 589.5 265C601.5 267.667 614.5 270.5 628.5 273.5C642.833 276.5 657 280.333 671 285C685.333 289.333 698.333 295.333 710 303C721.667 310.333 731 320.167 738 332.5C745.333 344.5 749 359.667 749 378C749 398.333 743.167 417.167 731.5 434.5C720.167 451.5 703 465.167 680 475.5C657.333 485.833 628.667 491 594 491ZM752.73 484L907.23 134H1004.73L1159.73 484H1056.73L935.73 182.5H974.73L853.73 484H752.73ZM837.23 416L862.73 343H1033.73L1059.23 416H837.23ZM1187.8 484V134H1347.8C1379.8 134 1407.3 139.167 1430.3 149.5C1453.63 159.833 1471.63 174.833 1484.3 194.5C1496.96 213.833 1503.3 236.833 1503.3 263.5C1503.3 289.833 1496.96 312.667 1484.3 332C1471.63 351.333 1453.63 366.333 1430.3 377C1407.3 387.333 1379.8 392.5 1347.8 392.5H1242.8L1286.8 349.5V484H1187.8ZM1286.8 360L1242.8 314.5H1341.8C1362.46 314.5 1377.8 310 1387.8 301C1398.13 292 1403.3 279.5 1403.3 263.5C1403.3 247.167 1398.13 234.5 1387.8 225.5C1377.8 216.5 1362.46 212 1341.8 212H1242.8L1286.8 166.5V360Z" fill="black"/>
<path d="M511 480.5L510.732 481.463L510.739 481.465L510.746 481.467L511 480.5ZM446.5 452.5L445.586 452.093L445.246 452.857L445.938 453.327L446.5 452.5ZM479 379.5L479.538 378.657L478.559 378.032L478.086 379.093L479 379.5ZM533 404.5L532.688 405.45L532.698 405.453L532.707 405.456L533 404.5ZM627.5 410.5L627.77 411.463L627.787 411.458L627.805 411.452L627.5 410.5ZM645.5 400.5L644.765 399.822L644.763 399.824L645.5 400.5ZM640.5 366.5L639.963 367.344L639.963 367.344L640.5 366.5ZM612 355L612.249 354.031L612.249 354.031L612 355ZM573 346L572.79 346.978L572.795 346.979L573 346ZM530.5 334.5L530.184 335.449L530.19 335.451L530.5 334.5ZM492 316.5L491.451 317.336L491.459 317.341L491.468 317.347L492 316.5ZM463.5 287L462.64 287.511L462.647 287.521L463.5 287ZM469.5 183.5L468.675 182.934L468.668 182.945L469.5 183.5ZM521.5 142.5L521.09 141.588L521.09 141.588L521.5 142.5ZM675 135L674.764 135.972L674.773 135.974L674.782 135.976L675 135ZM734.5 157.5L735.424 157.883L735.76 157.072L735 156.634L734.5 157.5ZM704 231L703.525 231.88L704.499 232.406L704.924 231.383L704 231ZM654.5 211L654.225 211.962L654.234 211.964L654.244 211.967L654.5 211ZM574 208.5L574.305 209.452L574.322 209.447L574.339 209.441L574 208.5ZM556 219.5L555.214 218.882L555.214 218.882L556 219.5ZM561 254L560.445 254.832L560.468 254.847L560.491 254.861L561 254ZM589.5 265L589.251 265.968L589.267 265.973L589.283 265.976L589.5 265ZM628.5 273.5L628.29 274.478L628.295 274.479L628.5 273.5ZM671 285L670.684 285.949L670.697 285.953L670.711 285.957L671 285ZM710 303L709.451 303.836L709.459 303.841L709.468 303.847L710 303ZM738 332.5L737.13 332.994L737.138 333.008L737.147 333.021L738 332.5ZM731.5 434.5L730.67 433.942L730.668 433.945L731.5 434.5ZM680 475.5L679.59 474.588L679.585 474.59L680 475.5ZM594 490C565.416 490 537.834 486.51 511.254 479.533L510.746 481.467C537.499 488.49 565.251 492 594 492V490ZM511.268 479.537C485.005 472.223 463.613 462.928 447.062 451.673L445.938 453.327C462.72 464.739 484.328 474.111 510.732 481.463L511.268 479.537ZM447.414 452.907L479.914 379.907L478.086 379.093L445.586 452.093L447.414 452.907ZM478.462 380.343C494.209 390.394 512.287 398.761 532.688 405.45L533.312 403.55C513.046 396.905 495.124 388.606 479.538 378.657L478.462 380.343ZM532.707 405.456C553.463 411.817 574.061 415 594.5 415V413C574.272 413 553.871 409.85 533.293 403.544L532.707 405.456ZM594.5 415C608.212 415 619.313 413.831 627.77 411.463L627.23 409.537C619.02 411.836 608.122 413 594.5 413V415ZM627.805 411.452C636.213 408.762 642.402 405.36 646.237 401.176L644.763 399.824C641.265 403.64 635.454 406.905 627.195 409.548L627.805 411.452ZM646.235 401.178C650.398 396.669 652.5 391.429 652.5 385.5H650.5C650.5 390.904 648.602 395.665 644.765 399.822L646.235 401.178ZM652.5 385.5C652.5 377.124 648.629 370.488 641.037 365.656L639.963 367.344C647.038 371.846 650.5 377.876 650.5 385.5H652.5ZM641.037 365.656C633.588 360.916 623.981 357.048 612.249 354.031L611.751 355.968C623.352 358.952 632.745 362.751 639.963 367.344L641.037 365.656ZM612.249 354.031C600.565 351.027 587.55 348.024 573.205 345.021L572.795 346.979C587.117 349.976 600.102 352.973 611.751 355.968L612.249 354.031ZM573.21 345.022C559.245 342.03 545.112 338.206 530.81 333.549L530.19 335.451C544.555 340.128 558.755 343.97 572.79 346.978L573.21 345.022ZM530.816 333.551C516.887 328.908 504.127 322.941 492.532 315.653L491.468 317.347C503.207 324.725 516.113 330.759 530.184 335.449L530.816 333.551ZM492.549 315.664C481.007 308.079 471.61 298.354 464.353 286.479L462.647 287.521C470.056 299.646 479.66 309.587 491.451 317.336L492.549 315.664ZM464.36 286.489C457.142 274.35 453.5 259.04 453.5 240.5H451.5C451.5 259.294 455.191 274.983 462.64 287.511L464.36 286.489ZM453.5 240.5C453.5 219.692 459.111 200.886 470.332 184.055L468.668 182.945C457.222 200.114 451.5 219.308 451.5 240.5H453.5ZM470.325 184.066C481.866 167.248 499.04 153.687 521.91 143.412L521.09 141.588C497.96 151.98 480.467 165.752 468.675 182.934L470.325 184.066ZM521.91 143.412C544.743 133.154 573.26 128 607.5 128V126C573.074 126 544.257 131.18 521.09 141.588L521.91 143.412ZM607.5 128C630.422 128 652.843 130.657 674.764 135.972L675.236 134.028C653.157 128.676 630.578 126 607.5 126V128ZM674.782 135.976C697.03 140.957 716.766 148.423 734 158.366L735 156.634C717.567 146.577 697.637 139.043 675.218 134.024L674.782 135.976ZM733.576 157.117L703.076 230.617L704.924 231.383L735.424 157.883L733.576 157.117ZM704.475 230.12C687.747 221.087 671.174 214.389 654.756 210.033L654.244 211.967C670.492 216.277 686.919 222.913 703.525 231.88L704.475 230.12ZM654.775 210.038C638.362 205.349 622.436 203 607 203V205C622.231 205 637.972 207.318 654.225 211.962L654.775 210.038ZM607 203C593.274 203 582.146 204.505 573.661 207.559L574.339 209.441C582.521 206.495 593.393 205 607 205V203ZM573.695 207.548C565.257 210.248 559.05 214 555.214 218.882L556.786 220.118C560.284 215.666 566.076 212.085 574.305 209.452L573.695 207.548ZM555.214 218.882C551.407 223.727 549.5 229.279 549.5 235.5H551.5C551.5 229.721 553.26 224.606 556.786 220.118L555.214 218.882ZM549.5 235.5C549.5 243.538 553.199 250.001 560.445 254.832L561.555 253.168C554.801 248.665 551.5 242.796 551.5 235.5H549.5ZM560.491 254.861C567.931 259.257 577.528 262.954 589.251 265.968L589.749 264.031C578.139 261.046 568.735 257.409 561.509 253.139L560.491 254.861ZM589.283 265.976C601.286 268.643 614.288 271.477 628.29 274.478L628.71 272.522C614.712 269.523 601.714 266.69 589.717 264.024L589.283 265.976ZM628.295 274.479C642.591 277.471 656.72 281.294 670.684 285.949L671.316 284.051C657.28 279.373 643.076 275.529 628.705 272.521L628.295 274.479ZM670.711 285.957C684.959 290.265 697.87 296.225 709.451 303.836L710.549 302.164C698.797 294.441 685.708 288.402 671.289 284.043L670.711 285.957ZM709.468 303.847C720.99 311.089 730.209 320.8 737.13 332.994L738.87 332.006C731.791 319.534 722.343 309.577 710.532 302.153L709.468 303.847ZM737.147 333.021C744.359 344.824 748 359.796 748 378H750C750 359.537 746.308 344.176 738.853 331.979L737.147 333.021ZM748 378C748 398.129 742.229 416.768 730.67 433.942L732.33 435.058C744.104 417.565 750 398.538 750 378H748ZM730.668 433.945C719.461 450.756 702.459 464.314 679.59 474.588L680.41 476.412C703.541 466.02 720.872 452.244 732.332 435.055L730.668 433.945ZM679.585 474.59C657.089 484.846 628.576 490 594 490V492C628.757 492 657.577 486.821 680.415 476.41L679.585 474.59ZM752.73 484L751.816 483.596L751.196 485H752.73V484ZM907.23 134V133H906.579L906.316 133.596L907.23 134ZM1004.73 134L1005.64 133.595L1005.38 133H1004.73V134ZM1159.73 484V485H1161.27L1160.64 483.595L1159.73 484ZM1056.73 484L1055.8 484.372L1056.05 485H1056.73V484ZM935.73 182.5V181.5H934.252L934.802 182.872L935.73 182.5ZM974.73 182.5L975.659 182.872L976.209 181.5H974.73V182.5ZM853.73 484V485H854.407L854.659 484.372L853.73 484ZM837.23 416L836.286 415.67L835.822 417H837.23V416ZM862.73 343V342H862.021L861.786 342.67L862.73 343ZM1033.73 343L1034.67 342.67L1034.44 342H1033.73V343ZM1059.23 416V417H1060.64L1060.17 415.67L1059.23 416ZM753.645 484.404L908.145 134.404L906.316 133.596L751.816 483.596L753.645 484.404ZM907.23 135H1004.73V133H907.23V135ZM1003.82 134.405L1158.82 484.405L1160.64 483.595L1005.64 133.595L1003.82 134.405ZM1159.73 483H1056.73V485H1159.73V483ZM1057.66 483.628L936.659 182.128L934.802 182.872L1055.8 484.372L1057.66 483.628ZM935.73 183.5H974.73V181.5H935.73V183.5ZM973.802 182.128L852.802 483.628L854.659 484.372L975.659 182.872L973.802 182.128ZM853.73 483H752.73V485H853.73V483ZM838.175 416.33L863.675 343.33L861.786 342.67L836.286 415.67L838.175 416.33ZM862.73 344H1033.73V342H862.73V344ZM1032.79 343.33L1058.29 416.33L1060.17 415.67L1034.67 342.67L1032.79 343.33ZM1059.23 415H837.23V417H1059.23V415ZM1187.8 484H1186.8V485H1187.8V484ZM1187.8 134V133H1186.8V134H1187.8ZM1430.3 149.5L1429.89 150.412L1429.89 150.414L1430.3 149.5ZM1484.3 194.5L1483.46 195.041L1483.46 195.048L1484.3 194.5ZM1484.3 332L1485.13 332.548L1485.13 332.548L1484.3 332ZM1430.3 377L1430.71 377.912L1430.71 377.909L1430.3 377ZM1242.8 392.5L1242.1 391.785L1240.34 393.5H1242.8V392.5ZM1286.8 349.5H1287.8V347.124L1286.1 348.785L1286.8 349.5ZM1286.8 484V485H1287.8V484H1286.8ZM1286.8 360L1286.08 360.695L1287.8 362.473V360H1286.8ZM1242.8 314.5V313.5H1240.44L1242.08 315.195L1242.8 314.5ZM1387.8 301L1387.14 300.246L1387.13 300.251L1387.13 300.257L1387.8 301ZM1387.8 225.5L1387.13 226.243L1387.13 226.249L1387.14 226.254L1387.8 225.5ZM1242.8 212L1242.08 211.305L1240.44 213H1242.8V212ZM1286.8 166.5H1287.8V164.027L1286.08 165.805L1286.8 166.5ZM1188.8 484V134H1186.8V484H1188.8ZM1187.8 135H1347.8V133H1187.8V135ZM1347.8 135C1379.69 135 1407.05 140.15 1429.89 150.412L1430.71 148.588C1407.55 138.183 1379.9 133 1347.8 133V135ZM1429.89 150.414C1453.06 160.676 1470.9 175.554 1483.46 195.041L1485.14 193.958C1472.36 174.113 1454.2 158.991 1430.7 148.586L1429.89 150.414ZM1483.46 195.048C1496 214.195 1502.3 236.997 1502.3 263.5H1504.3C1504.3 236.669 1497.92 213.472 1485.13 193.952L1483.46 195.048ZM1502.3 263.5C1502.3 289.667 1496.01 312.303 1483.46 331.452L1485.13 332.548C1497.92 313.03 1504.3 290 1504.3 263.5H1502.3ZM1483.46 331.452C1470.91 350.611 1453.06 365.493 1429.88 376.091L1430.71 377.909C1454.2 367.173 1472.35 352.056 1485.13 332.548L1483.46 331.452ZM1429.89 376.088C1407.05 386.35 1379.69 391.5 1347.8 391.5V393.5C1379.9 393.5 1407.55 388.317 1430.71 377.912L1429.89 376.088ZM1347.8 391.5H1242.8V393.5H1347.8V391.5ZM1243.5 393.215L1287.5 350.215L1286.1 348.785L1242.1 391.785L1243.5 393.215ZM1285.8 349.5V484H1287.8V349.5H1285.8ZM1286.8 483H1187.8V485H1286.8V483ZM1287.52 359.305L1243.52 313.805L1242.08 315.195L1286.08 360.695L1287.52 359.305ZM1242.8 315.5H1341.8V313.5H1242.8V315.5ZM1341.8 315.5C1362.58 315.5 1378.21 310.978 1388.47 301.743L1387.13 300.257C1377.39 309.022 1362.34 313.5 1341.8 313.5V315.5ZM1388.45 301.754C1399.04 292.532 1404.3 279.736 1404.3 263.5H1402.3C1402.3 279.264 1397.22 291.468 1387.14 300.246L1388.45 301.754ZM1404.3 263.5C1404.3 246.938 1399.05 233.972 1388.45 224.746L1387.14 226.254C1397.21 235.028 1402.3 247.395 1402.3 263.5H1404.3ZM1388.47 224.757C1378.21 215.522 1362.58 211 1341.8 211V213C1362.34 213 1377.39 217.478 1387.13 226.243L1388.47 224.757ZM1341.8 211H1242.8V213H1341.8V211ZM1243.52 212.695L1287.52 167.195L1286.08 165.805L1242.08 211.305L1243.52 212.695ZM1285.8 166.5V360H1287.8V166.5H1285.8Z" fill="black"/>
</g>
<defs>
<filter id="filter0_d_107_1483" x="442.5" y="127" width="1064.8" height="372" filterUnits="userSpaceOnUse" color-interpolation-filters="sRGB">
<feFlood flood-opacity="0" result="BackgroundImageFix"/>
<feColorMatrix in="SourceAlpha" type="matrix" values="0 0 0 0 0 0 0 0 0 0 0 0 0 0 0 0 0 0 127 0" result="hardAlpha"/>
<feOffset dy="4"/>
<feGaussianBlur stdDeviation="2"/>
<feComposite in2="hardAlpha" operator="out"/>
<feColorMatrix type="matrix" values="0 0 0 0 0 0 0 0 0 0 0 0 0 0 0 0 0 0 0.25 0"/>
<feBlend mode="normal" in2="BackgroundImageFix" result="effect1_dropShadow_107_1483"/>
<feBlend mode="normal" in="SourceGraphic" in2="effect1_dropShadow_107_1483" result="shape"/>
</filter>
</defs>
</svg>
